<svg width="30" height="30" viewBox="0 0 30 30" fill="none" xmlns="http://www.w3.org/2000/svg">
<path d="M8.86937 14.0122H8.85731C8.38404 14.0122 8 14.3954 8 14.8695C8 15.3435 8.3832 15.7268 8.85731 15.7268H8.87004H20.8683H20.8804C21.3536 15.7268 21.7377 15.3436 21.7377 14.8695C21.7377 14.3956 21.3545 14.0122 20.8804 14.0122H20.8677H8.86937Z" fill="#3D3D3D"/>
<path d="M15.7263 8.86937V8.85731C15.7263 8.38404 15.3431 8 14.869 8C14.3951 8 14.0117 8.3832 14.0117 8.85731V8.87004V8.86937V20.8685V20.8806C14.0117 21.3538 14.3949 21.7379 14.869 21.7379C15.343 21.7379 15.7263 21.3547 15.7263 20.8806V20.8678V20.8685V8.86937Z" fill="#3D3D3D"/>
<rect x="3" y="3" width="24" height="24" rx="3" stroke="#3D3D3D" stroke-width="2"/>
</svg>
