<svg width="40" height="40" viewBox="0 0 40 40" fill="none" xmlns="http://www.w3.org/2000/svg">
<path fill-rule="evenodd" clip-rule="evenodd" d="M19.9999 4.28564C11.3268 4.28564 4.28564 11.3268 4.28564 19.9999C4.28564 28.673 11.3268 35.7142 19.9999 35.7142C28.673 35.7142 35.7142 28.673 35.7142 19.9999C35.7142 11.3268 28.673 4.28564 19.9999 4.28564ZM19.9999 6.38088C27.5164 6.38088 33.619 12.4834 33.619 19.9999C33.619 27.5164 27.5164 33.619 19.9999 33.619C12.4834 33.619 6.38088 27.5164 6.38088 19.9999C6.38088 12.4834 12.4834 6.38088 19.9999 6.38088Z" fill="#F4F4F4"/>
<path fill-rule="evenodd" clip-rule="evenodd" d="M18.9522 11.619V18.9553L11.6159 18.9794C11.0376 18.9815 10.5692 19.452 10.5713 20.0303C10.5734 20.6086 11.0437 21.0767 11.622 21.0746L20.0029 21.0475C20.5803 21.0454 21.0475 20.577 21.0475 19.9999V11.6189C21.0475 11.0406 20.5782 10.5713 19.9999 10.5713C19.4216 10.5713 18.9522 11.0406 18.9522 11.6189L18.9522 11.619Z" fill="#F4F4F4"/>
</svg>
