<svg width="32" height="32" viewBox="0 0 32 32" fill="none" xmlns="http://www.w3.org/2000/svg">
<path fill-rule="evenodd" clip-rule="evenodd" d="M15.9999 0.285706C7.32684 0.285706 0.285645 7.3269 0.285645 16C0.285645 24.6731 7.32684 31.7143 15.9999 31.7143C24.673 31.7143 31.7142 24.6731 31.7142 16C31.7142 7.3269 24.673 0.285706 15.9999 0.285706ZM15.9999 2.38094C23.5164 2.38094 29.619 8.48347 29.619 16C29.619 23.5165 23.5164 29.619 15.9999 29.619C8.48341 29.619 2.38088 23.5165 2.38088 16C2.38088 8.48347 8.48341 2.38094 15.9999 2.38094Z" fill="#3D3D3D" fill-opacity="0.6"/>
<path fill-rule="evenodd" clip-rule="evenodd" d="M14.9522 7.61902V14.9553L7.61586 14.9794C7.03756 14.9815 6.5692 15.452 6.5713 16.0303C6.5734 16.6086 7.04366 17.0768 7.62197 17.0747L16.0029 17.0475C16.5803 17.0454 17.0475 16.577 17.0475 15.9999V7.61897C17.0475 7.04067 16.5782 6.57135 15.9999 6.57135C15.4216 6.57135 14.9522 7.04067 14.9522 7.61897L14.9522 7.61902Z" fill="#3D3D3D" fill-opacity="0.6"/>
</svg>
