<svg width="194" height="79" viewBox="0 0 194 79" fill="none" xmlns="http://www.w3.org/2000/svg">
<rect x="0.75" y="0.75" width="192.5" height="70.5" rx="4.25" fill="#E41B28"/>
<path d="M14.4516 23V12.8182H15.9878V21.6776H20.6015V23H14.4516ZM24.4569 23.169C23.973 23.169 23.5355 23.0795 23.1444 22.9006C22.7533 22.7183 22.4434 22.4548 22.2148 22.1101C21.9894 21.7654 21.8767 21.3428 21.8767 20.8423C21.8767 20.4115 21.9595 20.0568 22.1253 19.7784C22.291 19.5 22.5147 19.2796 22.7964 19.1172C23.0782 18.9548 23.393 18.8321 23.741 18.7493C24.089 18.6664 24.4437 18.6035 24.805 18.5604C25.2623 18.5073 25.6336 18.4643 25.9186 18.4311C26.2036 18.3946 26.4108 18.3366 26.54 18.2571C26.6693 18.1776 26.7339 18.0483 26.7339 17.8693V17.8345C26.7339 17.4003 26.6113 17.0639 26.366 16.8253C26.1241 16.5866 25.7628 16.4673 25.2822 16.4673C24.7818 16.4673 24.3873 16.5784 24.099 16.8004C23.814 17.0192 23.6167 17.2628 23.5074 17.5312L22.1104 17.2131C22.2761 16.7491 22.518 16.3745 22.8362 16.0895C23.1577 15.8011 23.5273 15.5923 23.9449 15.4631C24.3625 15.3305 24.8016 15.2642 25.2623 15.2642C25.5673 15.2642 25.8904 15.3007 26.2318 15.3736C26.5765 15.4432 26.898 15.5724 27.1963 15.7614C27.4979 15.9503 27.7448 16.2204 27.9371 16.5717C28.1293 16.9197 28.2254 17.3722 28.2254 17.929V23H26.7737V21.956H26.714C26.6179 22.1482 26.4738 22.3371 26.2815 22.5227C26.0893 22.7083 25.8424 22.8625 25.5407 22.9851C25.2391 23.1077 24.8779 23.169 24.4569 23.169ZM24.7801 21.9759C25.1911 21.9759 25.5424 21.8946 25.8341 21.7322C26.1291 21.5698 26.3528 21.3577 26.5052 21.0959C26.661 20.8307 26.7389 20.5473 26.7389 20.2457V19.2614C26.6859 19.3144 26.5831 19.3641 26.4307 19.4105C26.2815 19.4536 26.1108 19.4917 25.9186 19.5249C25.7264 19.5547 25.5391 19.5829 25.3568 19.6094C25.1745 19.6326 25.022 19.6525 24.8994 19.669C24.6111 19.7055 24.3476 19.7668 24.1089 19.853C23.8736 19.9392 23.6847 20.0634 23.5422 20.2259C23.403 20.3849 23.3334 20.5971 23.3334 20.8622C23.3334 21.2301 23.4693 21.5085 23.741 21.6974C24.0128 21.883 24.3592 21.9759 24.7801 21.9759ZM33.77 15.3636V16.5568H29.5988V15.3636H33.77ZM30.7174 13.5341H32.2039V20.7578C32.2039 21.0462 32.247 21.2633 32.3332 21.4091C32.4194 21.5516 32.5304 21.6494 32.6663 21.7024C32.8055 21.7521 32.9563 21.777 33.1187 21.777C33.238 21.777 33.3424 21.7687 33.4319 21.7521C33.5214 21.7356 33.591 21.7223 33.6407 21.7124L33.9092 22.9403C33.823 22.9735 33.7004 23.0066 33.5413 23.0398C33.3822 23.0762 33.1833 23.0961 32.9447 23.0994C32.5536 23.1061 32.189 23.0365 31.8509 22.8906C31.5129 22.7448 31.2394 22.5194 31.0306 22.2145C30.8218 21.9096 30.7174 21.5268 30.7174 21.0661V13.5341ZM38.6235 23.1541C37.8711 23.1541 37.2232 22.9934 36.6796 22.6719C36.1394 22.3471 35.7217 21.8913 35.4268 21.3047C35.1351 20.7147 34.9893 20.0237 34.9893 19.2315C34.9893 18.4493 35.1351 17.7599 35.4268 17.1634C35.7217 16.5668 36.1327 16.1011 36.6597 15.7663C37.19 15.4316 37.8098 15.2642 38.5191 15.2642C38.95 15.2642 39.3676 15.3355 39.7719 15.478C40.1763 15.6205 40.5392 15.8442 40.8607 16.1491C41.1822 16.4541 41.4358 16.8501 41.6214 17.3374C41.807 17.8213 41.8998 18.4096 41.8998 19.1023V19.6293H35.8295V18.5156H40.4431C40.4431 18.1245 40.3635 17.7782 40.2045 17.4766C40.0454 17.1716 39.8216 16.9313 39.5333 16.7557C39.2483 16.58 38.9135 16.4922 38.529 16.4922C38.1114 16.4922 37.7468 16.5949 37.4353 16.8004C37.127 17.0026 36.8884 17.2678 36.7194 17.5959C36.5537 17.9207 36.4708 18.2737 36.4708 18.6548V19.5249C36.4708 20.0353 36.5603 20.4695 36.7393 20.8274C36.9215 21.1854 37.1751 21.4588 37.4999 21.6477C37.8247 21.8333 38.2042 21.9261 38.6384 21.9261C38.9201 21.9261 39.177 21.8864 39.409 21.8068C39.641 21.724 39.8415 21.6013 40.0106 21.4389C40.1796 21.2765 40.3089 21.076 40.3983 20.8374L41.8053 21.0909C41.6926 21.5052 41.4904 21.8681 41.1988 22.1797C40.9104 22.4879 40.5475 22.7282 40.11 22.9006C39.6758 23.0696 39.1803 23.1541 38.6235 23.1541ZM49.2714 17.228L47.9241 17.4666C47.8677 17.2943 47.7783 17.1302 47.6556 16.9744C47.5363 16.8187 47.3739 16.6911 47.1684 16.5916C46.9629 16.4922 46.7061 16.4425 46.3978 16.4425C45.9769 16.4425 45.6256 16.5369 45.3438 16.7259C45.0621 16.9115 44.9213 17.1518 44.9213 17.4467C44.9213 17.7019 45.0157 17.9074 45.2046 18.0632C45.3936 18.219 45.6985 18.3466 46.1194 18.446L47.3325 18.7244C48.0351 18.8868 48.5588 19.1371 48.9035 19.4751C49.2482 19.8132 49.4205 20.2524 49.4205 20.7926C49.4205 21.25 49.288 21.6577 49.0228 22.0156C48.761 22.3703 48.3947 22.6487 47.9241 22.8509C47.4568 23.053 46.9149 23.1541 46.2984 23.1541C45.4433 23.1541 44.7456 22.9718 44.2053 22.6072C43.6651 22.2393 43.3337 21.7173 43.211 21.0412L44.6478 20.8224C44.7373 21.197 44.9213 21.4804 45.1997 21.6726C45.4781 21.8615 45.841 21.956 46.2884 21.956C46.7757 21.956 47.1651 21.8549 47.4568 21.6527C47.7484 21.4472 47.8943 21.197 47.8943 20.902C47.8943 20.6634 47.8048 20.4628 47.6258 20.3004C47.4501 20.138 47.18 20.0154 46.8154 19.9325L45.5228 19.6491C44.8102 19.4867 44.2832 19.2282 43.9419 18.8736C43.6038 18.5189 43.4347 18.0698 43.4347 17.5263C43.4347 17.0755 43.5607 16.6811 43.8126 16.343C44.0645 16.005 44.4125 15.7415 44.8566 15.5526C45.3008 15.3603 45.8095 15.2642 46.3829 15.2642C47.2082 15.2642 47.8578 15.4432 48.3318 15.8011C48.8057 16.1558 49.1189 16.6314 49.2714 17.228ZM54.6196 15.3636V16.5568H50.4484V15.3636H54.6196ZM51.567 13.5341H53.0535V20.7578C53.0535 21.0462 53.0966 21.2633 53.1828 21.4091C53.269 21.5516 53.38 21.6494 53.5159 21.7024C53.6551 21.7521 53.8059 21.777 53.9683 21.777C54.0876 21.777 54.192 21.7687 54.2815 21.7521C54.371 21.7356 54.4406 21.7223 54.4903 21.7124L54.7588 22.9403C54.6726 22.9735 54.55 23.0066 54.3909 23.0398C54.2318 23.0762 54.0329 23.0961 53.7943 23.0994C53.4032 23.1061 53.0386 23.0365 52.7006 22.8906C52.3625 22.7448 52.089 22.5194 51.8802 22.2145C51.6714 21.9096 51.567 21.5268 51.567 21.0661V13.5341ZM60.9484 23H59.3177L62.9818 12.8182H64.7567L68.4207 23H66.79L63.9115 14.6676H63.8319L60.9484 23ZM61.2219 19.0128H66.5116V20.3054H61.2219V19.0128ZM72.8653 23.1541C72.1262 23.1541 71.4898 22.9867 70.9562 22.652C70.4259 22.3139 70.0183 21.8482 69.7332 21.255C69.4482 20.6617 69.3057 19.9822 69.3057 19.2166C69.3057 18.4411 69.4515 17.7566 69.7432 17.1634C70.0348 16.5668 70.4458 16.1011 70.9761 15.7663C71.5064 15.4316 72.1312 15.2642 72.8504 15.2642C73.4304 15.2642 73.9475 15.3719 74.4015 15.5874C74.8556 15.7995 75.2219 16.0978 75.5003 16.4822C75.782 16.8667 75.9494 17.3158 76.0024 17.8295H74.5557C74.4761 17.4716 74.2938 17.1634 74.0088 16.9048C73.7271 16.6463 73.3492 16.517 72.8753 16.517C72.461 16.517 72.098 16.6264 71.7865 16.8452C71.4782 17.0606 71.238 17.3688 71.0656 17.7699C70.8933 18.1676 70.8071 18.6383 70.8071 19.1818C70.8071 19.7386 70.8916 20.2192 71.0606 20.6236C71.2297 21.0279 71.4683 21.3411 71.7765 21.5632C72.0881 21.7853 72.4543 21.8963 72.8753 21.8963C73.157 21.8963 73.4122 21.8449 73.6409 21.7422C73.8729 21.6361 74.0668 21.4853 74.2226 21.2898C74.3817 21.0942 74.4927 20.8589 74.5557 20.5838H76.0024C75.9494 21.0777 75.7886 21.5185 75.5202 21.9062C75.2517 22.294 74.8921 22.599 74.4413 22.821C73.9939 23.0431 73.4685 23.1541 72.8653 23.1541ZM79.0786 18.4659V23H77.5921V12.8182H79.0587V16.6065H79.1531C79.3321 16.1955 79.6056 15.8691 79.9735 15.6271C80.3414 15.3852 80.8219 15.2642 81.4152 15.2642C81.9389 15.2642 82.3963 15.3719 82.7874 15.5874C83.1818 15.8028 83.4867 16.1243 83.7021 16.5518C83.9209 16.9761 84.0303 17.5064 84.0303 18.1428V23H82.5438V18.3217C82.5438 17.7616 82.3996 17.3274 82.1112 17.0192C81.8229 16.7076 81.4218 16.5518 80.9081 16.5518C80.5568 16.5518 80.2419 16.6264 79.9635 16.7756C79.6884 16.9247 79.4713 17.1435 79.3122 17.4318C79.1565 17.7169 79.0786 18.0616 79.0786 18.4659ZM86.0139 23V15.3636H87.5004V23H86.0139ZM86.7646 14.1854C86.5061 14.1854 86.2841 14.0992 86.0985 13.9268C85.9162 13.7512 85.825 13.5424 85.825 13.3004C85.825 13.0552 85.9162 12.8464 86.0985 12.674C86.2841 12.4983 86.5061 12.4105 86.7646 12.4105C87.0232 12.4105 87.2436 12.4983 87.4259 12.674C87.6115 12.8464 87.7043 13.0552 87.7043 13.3004C87.7043 13.5424 87.6115 13.7512 87.4259 13.9268C87.2436 14.0992 87.0232 14.1854 86.7646 14.1854ZM92.7915 23.1541C92.0391 23.1541 91.3911 22.9934 90.8476 22.6719C90.3073 22.3471 89.8897 21.8913 89.5947 21.3047C89.3031 20.7147 89.1572 20.0237 89.1572 19.2315C89.1572 18.4493 89.3031 17.7599 89.5947 17.1634C89.8897 16.5668 90.3007 16.1011 90.8277 15.7663C91.358 15.4316 91.9778 15.2642 92.6871 15.2642C93.1179 15.2642 93.5355 15.3355 93.9399 15.478C94.3443 15.6205 94.7072 15.8442 95.0287 16.1491C95.3502 16.4541 95.6037 16.8501 95.7893 17.3374C95.9749 17.8213 96.0677 18.4096 96.0677 19.1023V19.6293H89.9974V18.5156H94.6111C94.6111 18.1245 94.5315 17.7782 94.3724 17.4766C94.2133 17.1716 93.9896 16.9313 93.7013 16.7557C93.4162 16.58 93.0815 16.4922 92.697 16.4922C92.2794 16.4922 91.9148 16.5949 91.6032 16.8004C91.295 17.0026 91.0564 17.2678 90.8873 17.5959C90.7216 17.9207 90.6388 18.2737 90.6388 18.6548V19.5249C90.6388 20.0353 90.7282 20.4695 90.9072 20.8274C91.0895 21.1854 91.3431 21.4588 91.6679 21.6477C91.9927 21.8333 92.3722 21.9261 92.8064 21.9261C93.0881 21.9261 93.345 21.8864 93.577 21.8068C93.809 21.724 94.0095 21.6013 94.1785 21.4389C94.3476 21.2765 94.4768 21.076 94.5663 20.8374L95.9733 21.0909C95.8606 21.5052 95.6584 21.8681 95.3667 22.1797C95.0784 22.4879 94.7155 22.7282 94.278 22.9006C93.8438 23.0696 93.3483 23.1541 92.7915 23.1541ZM104.031 15.3636L101.262 23H99.6709L96.8968 15.3636H98.4926L100.427 21.2401H100.506L102.435 15.3636H104.031ZM108.459 23.1541C107.707 23.1541 107.059 22.9934 106.516 22.6719C105.975 22.3471 105.558 21.8913 105.263 21.3047C104.971 20.7147 104.825 20.0237 104.825 19.2315C104.825 18.4493 104.971 17.7599 105.263 17.1634C105.558 16.5668 105.969 16.1011 106.496 15.7663C107.026 15.4316 107.646 15.2642 108.355 15.2642C108.786 15.2642 109.204 15.3355 109.608 15.478C110.012 15.6205 110.375 15.8442 110.697 16.1491C111.018 16.4541 111.272 16.8501 111.457 17.3374C111.643 17.8213 111.736 18.4096 111.736 19.1023V19.6293H105.665V18.5156H110.279C110.279 18.1245 110.199 17.7782 110.04 17.4766C109.881 17.1716 109.658 16.9313 109.369 16.7557C109.084 16.58 108.749 16.4922 108.365 16.4922C107.947 16.4922 107.583 16.5949 107.271 16.8004C106.963 17.0026 106.724 17.2678 106.555 17.5959C106.39 17.9207 106.307 18.2737 106.307 18.6548V19.5249C106.307 20.0353 106.396 20.4695 106.575 20.8274C106.757 21.1854 107.011 21.4588 107.336 21.6477C107.661 21.8333 108.04 21.9261 108.474 21.9261C108.756 21.9261 109.013 21.8864 109.245 21.8068C109.477 21.724 109.677 21.6013 109.847 21.4389C110.016 21.2765 110.145 21.076 110.234 20.8374L111.641 21.0909C111.529 21.5052 111.326 21.8681 111.035 22.1797C110.746 22.4879 110.383 22.7282 109.946 22.9006C109.512 23.0696 109.016 23.1541 108.459 23.1541ZM113.385 23V15.3636H114.812V16.6065H114.906C115.065 16.1856 115.326 15.8575 115.687 15.6222C116.048 15.3835 116.481 15.2642 116.984 15.2642C117.495 15.2642 117.922 15.3835 118.267 15.6222C118.615 15.8608 118.872 16.1889 119.038 16.6065H119.117C119.3 16.1989 119.59 15.8741 119.987 15.6321C120.385 15.3868 120.859 15.2642 121.409 15.2642C122.102 15.2642 122.667 15.4813 123.104 15.9155C123.545 16.3497 123.766 17.0043 123.766 17.8793V23H122.279V18.0185C122.279 17.5014 122.138 17.1269 121.857 16.8949C121.575 16.6629 121.238 16.5469 120.847 16.5469C120.363 16.5469 119.987 16.696 119.719 16.9943C119.45 17.2893 119.316 17.6688 119.316 18.1328V23H117.835V17.924C117.835 17.5097 117.705 17.1766 117.447 16.9247C117.188 16.6728 116.852 16.5469 116.438 16.5469C116.156 16.5469 115.896 16.6214 115.657 16.7706C115.422 16.9164 115.231 17.1203 115.085 17.3821C114.943 17.6439 114.872 17.9472 114.872 18.2919V23H113.385ZM129.049 23.1541C128.297 23.1541 127.649 22.9934 127.105 22.6719C126.565 22.3471 126.148 21.8913 125.853 21.3047C125.561 20.7147 125.415 20.0237 125.415 19.2315C125.415 18.4493 125.561 17.7599 125.853 17.1634C126.148 16.5668 126.559 16.1011 127.085 15.7663C127.616 15.4316 128.236 15.2642 128.945 15.2642C129.376 15.2642 129.793 15.3355 130.198 15.478C130.602 15.6205 130.965 15.8442 131.286 16.1491C131.608 16.4541 131.862 16.8501 132.047 17.3374C132.233 17.8213 132.326 18.4096 132.326 19.1023V19.6293H126.255V18.5156H130.869C130.869 18.1245 130.789 17.7782 130.63 17.4766C130.471 17.1716 130.247 16.9313 129.959 16.7557C129.674 16.58 129.339 16.4922 128.955 16.4922C128.537 16.4922 128.173 16.5949 127.861 16.8004C127.553 17.0026 127.314 17.2678 127.145 17.5959C126.979 17.9207 126.897 18.2737 126.897 18.6548V19.5249C126.897 20.0353 126.986 20.4695 127.165 20.8274C127.347 21.1854 127.601 21.4588 127.926 21.6477C128.251 21.8333 128.63 21.9261 129.064 21.9261C129.346 21.9261 129.603 21.8864 129.835 21.8068C130.067 21.724 130.267 21.6013 130.436 21.4389C130.605 21.2765 130.735 21.076 130.824 20.8374L132.231 21.0909C132.118 21.5052 131.916 21.8681 131.625 22.1797C131.336 22.4879 130.973 22.7282 130.536 22.9006C130.102 23.0696 129.606 23.1541 129.049 23.1541ZM135.461 18.4659V23H133.975V15.3636H135.402V16.6065H135.496C135.672 16.2022 135.947 15.8774 136.321 15.6321C136.699 15.3868 137.175 15.2642 137.748 15.2642C138.269 15.2642 138.724 15.3736 139.116 15.5923C139.507 15.8078 139.81 16.1293 140.025 16.5568C140.241 16.9844 140.348 17.513 140.348 18.1428V23H138.862V18.3217C138.862 17.7682 138.718 17.3357 138.429 17.0241C138.141 16.7093 137.745 16.5518 137.241 16.5518C136.897 16.5518 136.59 16.6264 136.321 16.7756C136.056 16.9247 135.846 17.1435 135.69 17.4318C135.538 17.7169 135.461 18.0616 135.461 18.4659ZM145.907 15.3636V16.5568H141.736V15.3636H145.907ZM142.854 13.5341H144.341V20.7578C144.341 21.0462 144.384 21.2633 144.47 21.4091C144.556 21.5516 144.667 21.6494 144.803 21.7024C144.942 21.7521 145.093 21.777 145.255 21.777C145.375 21.777 145.479 21.7687 145.569 21.7521C145.658 21.7356 145.728 21.7223 145.777 21.7124L146.046 22.9403C145.96 22.9735 145.837 23.0066 145.678 23.0398C145.519 23.0762 145.32 23.0961 145.081 23.0994C144.69 23.1061 144.326 23.0365 143.988 22.8906C143.65 22.7448 143.376 22.5194 143.167 22.2145C142.959 21.9096 142.854 21.5268 142.854 21.0661V13.5341ZM149.425 12.8182L149.296 20.0717H147.919L147.79 12.8182H149.425ZM148.61 23.0945C148.335 23.0945 148.1 22.9983 147.904 22.8061C147.708 22.6106 147.612 22.3752 147.616 22.1001C147.612 21.8284 147.708 21.5964 147.904 21.4041C148.1 21.2086 148.335 21.1108 148.61 21.1108C148.878 21.1108 149.11 21.2086 149.306 21.4041C149.502 21.5964 149.601 21.8284 149.604 22.1001C149.601 22.2824 149.553 22.4498 149.46 22.6023C149.371 22.7514 149.251 22.8707 149.102 22.9602C148.953 23.0497 148.789 23.0945 148.61 23.0945Z" fill="white"/>
<path d="M13.3068 34.2727H14.517L16.9375 38.3466H17.0398L19.4602 34.2727H20.6705L17.517 39.4034V43H16.4602V39.4034L13.3068 34.2727ZM23.6342 43.1364C23.0433 43.1364 22.5249 42.9957 22.0788 42.7145C21.6357 42.4332 21.2891 42.0398 21.0391 41.5341C20.7919 41.0284 20.6683 40.4375 20.6683 39.7614C20.6683 39.0795 20.7919 38.4844 21.0391 37.9759C21.2891 37.4673 21.6357 37.0724 22.0788 36.7912C22.5249 36.5099 23.0433 36.3693 23.6342 36.3693C24.2251 36.3693 24.7422 36.5099 25.1854 36.7912C25.6314 37.0724 25.978 37.4673 26.2251 37.9759C26.4751 38.4844 26.6001 39.0795 26.6001 39.7614C26.6001 40.4375 26.4751 41.0284 26.2251 41.5341C25.978 42.0398 25.6314 42.4332 25.1854 42.7145C24.7422 42.9957 24.2251 43.1364 23.6342 43.1364ZM23.6342 42.233C24.0831 42.233 24.4524 42.1179 24.7422 41.8878C25.032 41.6577 25.2464 41.3551 25.3857 40.9801C25.5249 40.6051 25.5945 40.1989 25.5945 39.7614C25.5945 39.3239 25.5249 38.9162 25.3857 38.5384C25.2464 38.1605 25.032 37.8551 24.7422 37.6222C24.4524 37.3892 24.0831 37.2727 23.6342 37.2727C23.1854 37.2727 22.8161 37.3892 22.5263 37.6222C22.2365 37.8551 22.022 38.1605 21.8828 38.5384C21.7436 38.9162 21.674 39.3239 21.674 39.7614C21.674 40.1989 21.7436 40.6051 21.8828 40.9801C22.022 41.3551 22.2365 41.6577 22.5263 41.8878C22.8161 42.1179 23.1854 42.233 23.6342 42.233ZM32.2603 40.3239V36.4545H33.266V43H32.2603V41.892H32.1921C32.0387 42.2244 31.8001 42.5071 31.4762 42.7401C31.1523 42.9702 30.7433 43.0852 30.2489 43.0852C29.8398 43.0852 29.4762 42.9957 29.158 42.8168C28.8398 42.6349 28.5898 42.3622 28.408 41.9986C28.2262 41.6321 28.1353 41.1705 28.1353 40.6136V36.4545H29.141V40.5455C29.141 41.0227 29.2745 41.4034 29.5415 41.6875C29.8114 41.9716 30.1552 42.1136 30.5728 42.1136C30.8228 42.1136 31.0771 42.0497 31.3356 41.9219C31.5969 41.794 31.8157 41.598 31.9918 41.3338C32.1708 41.0696 32.2603 40.733 32.2603 40.3239ZM41.142 43.1364C40.5284 43.1364 40 42.9915 39.5568 42.7017C39.1136 42.4119 38.7727 42.0128 38.5341 41.5043C38.2955 40.9957 38.1761 40.4148 38.1761 39.7614C38.1761 39.0966 38.2983 38.5099 38.5426 38.0014C38.7898 37.4901 39.1335 37.0909 39.5739 36.804C40.017 36.5142 40.5341 36.3693 41.125 36.3693C41.5852 36.3693 42 36.4545 42.3693 36.625C42.7386 36.7955 43.0412 37.0341 43.277 37.3409C43.5128 37.6477 43.6591 38.0057 43.7159 38.4148H42.7102C42.6335 38.1165 42.4631 37.8523 42.1989 37.6222C41.9375 37.3892 41.5852 37.2727 41.142 37.2727C40.75 37.2727 40.4063 37.375 40.1108 37.5795C39.8182 37.7812 39.5895 38.0668 39.4247 38.4361C39.2628 38.8026 39.1818 39.233 39.1818 39.7273C39.1818 40.233 39.2614 40.6733 39.4205 41.0483C39.5824 41.4233 39.8097 41.7145 40.1023 41.9219C40.3977 42.1293 40.7443 42.233 41.142 42.233C41.4034 42.233 41.6406 42.1875 41.8537 42.0966C42.0668 42.0057 42.2472 41.875 42.3949 41.7045C42.5426 41.5341 42.6477 41.3295 42.7102 41.0909H43.7159C43.6591 41.4773 43.5185 41.8253 43.294 42.1349C43.0724 42.4418 42.7784 42.6861 42.4119 42.8679C42.0483 43.0469 41.625 43.1364 41.142 43.1364ZM47.1122 43.1534C46.6974 43.1534 46.321 43.0753 45.983 42.919C45.6449 42.7599 45.3764 42.5312 45.1776 42.233C44.9787 41.9318 44.8793 41.5682 44.8793 41.142C44.8793 40.767 44.9531 40.4631 45.1009 40.2301C45.2486 39.9943 45.446 39.8097 45.6932 39.6761C45.9403 39.5426 46.2131 39.4432 46.5114 39.3778C46.8125 39.3097 47.1151 39.2557 47.419 39.2159C47.8168 39.1648 48.1392 39.1264 48.3864 39.1009C48.6364 39.0724 48.8182 39.0256 48.9318 38.9602C49.0483 38.8949 49.1065 38.7812 49.1065 38.6193V38.5852C49.1065 38.1648 48.9915 37.8381 48.7614 37.6051C48.5341 37.3722 48.1889 37.2557 47.7259 37.2557C47.2457 37.2557 46.8693 37.3608 46.5966 37.571C46.3239 37.7812 46.1321 38.0057 46.0213 38.2443L45.0668 37.9034C45.2372 37.5057 45.4645 37.196 45.7486 36.9744C46.0355 36.75 46.348 36.5937 46.6861 36.5057C47.027 36.4148 47.3622 36.3693 47.6918 36.3693C47.902 36.3693 48.1435 36.3949 48.4162 36.446C48.6918 36.4943 48.9574 36.5952 49.2131 36.7486C49.4716 36.902 49.6861 37.1335 49.8565 37.4432C50.027 37.7528 50.1122 38.1676 50.1122 38.6875V43H49.1065V42.1136H49.0554C48.9872 42.2557 48.8736 42.4077 48.7145 42.5696C48.5554 42.7315 48.3438 42.8693 48.0795 42.983C47.8153 43.0966 47.4929 43.1534 47.1122 43.1534ZM47.2656 42.25C47.6634 42.25 47.9986 42.1719 48.2713 42.0156C48.5469 41.8594 48.7543 41.6577 48.8935 41.4105C49.0355 41.1634 49.1065 40.9034 49.1065 40.6307V39.7102C49.0639 39.7614 48.9702 39.8082 48.8253 39.8509C48.6832 39.8906 48.5185 39.9261 48.331 39.9574C48.1463 39.9858 47.9659 40.0114 47.7898 40.0341C47.6165 40.054 47.4759 40.071 47.3679 40.0852C47.1065 40.1193 46.8622 40.1747 46.6349 40.2514C46.4105 40.3253 46.2287 40.4375 46.0895 40.5881C45.9531 40.7358 45.8849 40.9375 45.8849 41.1932C45.8849 41.5426 46.0142 41.8068 46.2727 41.9858C46.5341 42.1619 46.8651 42.25 47.2656 42.25ZM52.9535 39.0625V43H51.9478V36.4545H52.9194V37.4773H53.0046C53.158 37.1449 53.391 36.8778 53.7035 36.6761C54.016 36.4716 54.4194 36.3693 54.9137 36.3693C55.3569 36.3693 55.7447 36.4602 56.0771 36.642C56.4094 36.821 56.668 37.0938 56.8526 37.4602C57.0373 37.8239 57.1296 38.2841 57.1296 38.8409V43H56.1239V38.9091C56.1239 38.3949 55.9904 37.9943 55.7234 37.7074C55.4563 37.4176 55.0898 37.2727 54.6239 37.2727C54.3029 37.2727 54.016 37.3423 53.7631 37.4815C53.5131 37.6207 53.3157 37.8239 53.1708 38.0909C53.0259 38.358 52.9535 38.6818 52.9535 39.0625ZM65.0014 43.1364C64.3878 43.1364 63.8594 42.9915 63.4162 42.7017C62.973 42.4119 62.6321 42.0128 62.3935 41.5043C62.1548 40.9957 62.0355 40.4148 62.0355 39.7614C62.0355 39.0966 62.1577 38.5099 62.402 38.0014C62.6491 37.4901 62.9929 37.0909 63.4332 36.804C63.8764 36.5142 64.3935 36.3693 64.9844 36.3693C65.4446 36.3693 65.8594 36.4545 66.2287 36.625C66.598 36.7955 66.9006 37.0341 67.1364 37.3409C67.3722 37.6477 67.5185 38.0057 67.5753 38.4148H66.5696C66.4929 38.1165 66.3224 37.8523 66.0582 37.6222C65.7969 37.3892 65.4446 37.2727 65.0014 37.2727C64.6094 37.2727 64.2656 37.375 63.9702 37.5795C63.6776 37.7812 63.4489 38.0668 63.2841 38.4361C63.1222 38.8026 63.0412 39.233 63.0412 39.7273C63.0412 40.233 63.1207 40.6733 63.2798 41.0483C63.4418 41.4233 63.669 41.7145 63.9616 41.9219C64.2571 42.1293 64.6037 42.233 65.0014 42.233C65.2628 42.233 65.5 42.1875 65.7131 42.0966C65.9261 42.0057 66.1065 41.875 66.2543 41.7045C66.402 41.5341 66.5071 41.3295 66.5696 41.0909H67.5753C67.5185 41.4773 67.3778 41.8253 67.1534 42.1349C66.9318 42.4418 66.6378 42.6861 66.2713 42.8679C65.9077 43.0469 65.4844 43.1364 65.0014 43.1364ZM70.0511 34.2727V43H69.0455V34.2727H70.0511ZM71.8931 43V36.4545H72.8988V43H71.8931ZM72.4045 35.3636C72.2085 35.3636 72.0394 35.2969 71.8974 35.1634C71.7582 35.0298 71.6886 34.8693 71.6886 34.6818C71.6886 34.4943 71.7582 34.3338 71.8974 34.2003C72.0394 34.0668 72.2085 34 72.4045 34C72.6005 34 72.7681 34.0668 72.9073 34.2003C73.0494 34.3338 73.1204 34.4943 73.1204 34.6818C73.1204 34.8693 73.0494 35.0298 72.9073 35.1634C72.7681 35.2969 72.6005 35.3636 72.4045 35.3636ZM77.3999 43.1364C76.7862 43.1364 76.2578 42.9915 75.8146 42.7017C75.3714 42.4119 75.0305 42.0128 74.7919 41.5043C74.5533 40.9957 74.4339 40.4148 74.4339 39.7614C74.4339 39.0966 74.5561 38.5099 74.8004 38.0014C75.0476 37.4901 75.3913 37.0909 75.8317 36.804C76.2749 36.5142 76.7919 36.3693 77.3828 36.3693C77.843 36.3693 78.2578 36.4545 78.6271 36.625C78.9964 36.7955 79.299 37.0341 79.5348 37.3409C79.7706 37.6477 79.9169 38.0057 79.9737 38.4148H78.968C78.8913 38.1165 78.7209 37.8523 78.4567 37.6222C78.1953 37.3892 77.843 37.2727 77.3999 37.2727C77.0078 37.2727 76.6641 37.375 76.3686 37.5795C76.076 37.7812 75.8473 38.0668 75.6825 38.4361C75.5206 38.8026 75.4396 39.233 75.4396 39.7273C75.4396 40.233 75.5192 40.6733 75.6783 41.0483C75.8402 41.4233 76.0675 41.7145 76.3601 41.9219C76.6555 42.1293 77.0021 42.233 77.3999 42.233C77.6612 42.233 77.8984 42.1875 78.1115 42.0966C78.3246 42.0057 78.505 41.875 78.6527 41.7045C78.8004 41.5341 78.9055 41.3295 78.968 41.0909H79.9737C79.9169 41.4773 79.7763 41.8253 79.5518 42.1349C79.3303 42.4418 79.0362 42.6861 78.6697 42.8679C78.3061 43.0469 77.8828 43.1364 77.3999 43.1364ZM82.3814 40.6136L82.3643 39.3693H82.5689L85.4325 36.4545H86.6768L83.6257 39.5398H83.5405L82.3814 40.6136ZM81.4439 43V34.2727H82.4496V43H81.4439ZM85.603 43L83.0462 39.7614L83.7621 39.0625L86.8814 43H85.603ZM94.0053 43.1364C93.4144 43.1364 92.896 42.9957 92.4499 42.7145C92.0067 42.4332 91.6602 42.0398 91.4102 41.5341C91.163 41.0284 91.0394 40.4375 91.0394 39.7614C91.0394 39.0795 91.163 38.4844 91.4102 37.9759C91.6602 37.4673 92.0067 37.0724 92.4499 36.7912C92.896 36.5099 93.4144 36.3693 94.0053 36.3693C94.5962 36.3693 95.1133 36.5099 95.5565 36.7912C96.0025 37.0724 96.3491 37.4673 96.5962 37.9759C96.8462 38.4844 96.9712 39.0795 96.9712 39.7614C96.9712 40.4375 96.8462 41.0284 96.5962 41.5341C96.3491 42.0398 96.0025 42.4332 95.5565 42.7145C95.1133 42.9957 94.5962 43.1364 94.0053 43.1364ZM94.0053 42.233C94.4542 42.233 94.8235 42.1179 95.1133 41.8878C95.4031 41.6577 95.6175 41.3551 95.7567 40.9801C95.896 40.6051 95.9656 40.1989 95.9656 39.7614C95.9656 39.3239 95.896 38.9162 95.7567 38.5384C95.6175 38.1605 95.4031 37.8551 95.1133 37.6222C94.8235 37.3892 94.4542 37.2727 94.0053 37.2727C93.5565 37.2727 93.1871 37.3892 92.8974 37.6222C92.6076 37.8551 92.3931 38.1605 92.2539 38.5384C92.1147 38.9162 92.0451 39.3239 92.0451 39.7614C92.0451 40.1989 92.1147 40.6051 92.2539 40.9801C92.3931 41.3551 92.6076 41.6577 92.8974 41.8878C93.1871 42.1179 93.5565 42.233 94.0053 42.233ZM99.5121 39.0625V43H98.5064V36.4545H99.478V37.4773H99.5632C99.7166 37.1449 99.9496 36.8778 100.262 36.6761C100.575 36.4716 100.978 36.3693 101.472 36.3693C101.915 36.3693 102.303 36.4602 102.636 36.642C102.968 36.821 103.227 37.0938 103.411 37.4602C103.596 37.8239 103.688 38.2841 103.688 38.8409V43H102.683V38.9091C102.683 38.3949 102.549 37.9943 102.282 37.7074C102.015 37.4176 101.648 37.2727 101.183 37.2727C100.862 37.2727 100.575 37.3423 100.322 37.4815C100.072 37.6207 99.8743 37.8239 99.7294 38.0909C99.5845 38.358 99.5121 38.6818 99.5121 39.0625ZM111.748 36.4545V37.3068H108.355V36.4545H111.748ZM109.344 34.8864H110.35V41.125C110.35 41.4091 110.391 41.6222 110.473 41.7642C110.559 41.9034 110.667 41.9972 110.797 42.0455C110.931 42.0909 111.071 42.1136 111.219 42.1136C111.33 42.1136 111.421 42.108 111.492 42.0966C111.563 42.0824 111.62 42.071 111.662 42.0625L111.867 42.9659C111.799 42.9915 111.703 43.017 111.581 43.0426C111.459 43.071 111.304 43.0852 111.117 43.0852C110.833 43.0852 110.554 43.0241 110.282 42.902C110.012 42.7798 109.787 42.5938 109.608 42.3438C109.432 42.0938 109.344 41.7784 109.344 41.3977V34.8864ZM114.407 39.0625V43H113.401V34.2727H114.407V37.4773H114.492C114.645 37.1392 114.875 36.8707 115.182 36.6719C115.492 36.4702 115.904 36.3693 116.418 36.3693C116.864 36.3693 117.255 36.4588 117.59 36.6378C117.925 36.8139 118.185 37.0852 118.37 37.4517C118.557 37.8153 118.651 38.2784 118.651 38.8409V43H117.645V38.9091C117.645 38.3892 117.51 37.9872 117.24 37.7031C116.973 37.4162 116.603 37.2727 116.128 37.2727C115.799 37.2727 115.503 37.3423 115.242 37.4815C114.983 37.6207 114.779 37.8239 114.628 38.0909C114.48 38.358 114.407 38.6818 114.407 39.0625ZM120.491 43V36.4545H121.496V43H120.491ZM121.002 35.3636C120.806 35.3636 120.637 35.2969 120.495 35.1634C120.356 35.0298 120.286 34.8693 120.286 34.6818C120.286 34.4943 120.356 34.3338 120.495 34.2003C120.637 34.0668 120.806 34 121.002 34C121.198 34 121.366 34.0668 121.505 34.2003C121.647 34.3338 121.718 34.4943 121.718 34.6818C121.718 34.8693 121.647 35.0298 121.505 35.1634C121.366 35.2969 121.198 35.3636 121.002 35.3636ZM127.975 37.9205L127.071 38.1761C127.015 38.0256 126.931 37.8793 126.82 37.7372C126.712 37.5923 126.564 37.473 126.377 37.3793C126.189 37.2855 125.949 37.2386 125.657 37.2386C125.256 37.2386 124.922 37.331 124.655 37.5156C124.391 37.6974 124.259 37.929 124.259 38.2102C124.259 38.4602 124.35 38.6577 124.532 38.8026C124.713 38.9474 124.998 39.0682 125.384 39.1648L126.355 39.4034C126.941 39.5455 127.377 39.7628 127.664 40.0554C127.951 40.3452 128.094 40.7187 128.094 41.1761C128.094 41.5511 127.986 41.8864 127.77 42.1818C127.557 42.4773 127.259 42.7102 126.875 42.8807C126.492 43.0511 126.046 43.1364 125.537 43.1364C124.87 43.1364 124.317 42.9915 123.88 42.7017C123.442 42.4119 123.165 41.9886 123.049 41.4318L124.003 41.1932C124.094 41.5455 124.266 41.8097 124.519 41.9858C124.775 42.1619 125.108 42.25 125.52 42.25C125.989 42.25 126.361 42.1506 126.637 41.9517C126.915 41.75 127.054 41.5085 127.054 41.2273C127.054 41 126.975 40.8097 126.816 40.6562C126.657 40.5 126.412 40.3835 126.083 40.3068L124.992 40.0511C124.392 39.9091 123.952 39.6889 123.671 39.3906C123.392 39.0895 123.253 38.7131 123.253 38.2614C123.253 37.892 123.357 37.5653 123.564 37.2812C123.775 36.9972 124.06 36.7741 124.421 36.6122C124.784 36.4503 125.196 36.3693 125.657 36.3693C126.304 36.3693 126.813 36.5114 127.182 36.7955C127.554 37.0795 127.819 37.4545 127.975 37.9205ZM135.83 36.4545V37.3068H132.438V36.4545H135.83ZM133.426 34.8864H134.432V41.125C134.432 41.4091 134.473 41.6222 134.555 41.7642C134.641 41.9034 134.749 41.9972 134.879 42.0455C135.013 42.0909 135.153 42.1136 135.301 42.1136C135.412 42.1136 135.503 42.108 135.574 42.0966C135.645 42.0824 135.702 42.071 135.744 42.0625L135.949 42.9659C135.881 42.9915 135.786 43.017 135.663 43.0426C135.541 43.071 135.386 43.0852 135.199 43.0852C134.915 43.0852 134.636 43.0241 134.364 42.902C134.094 42.7798 133.869 42.5938 133.69 42.3438C133.514 42.0938 133.426 41.7784 133.426 41.3977V34.8864ZM139.931 43.1364C139.34 43.1364 138.822 42.9957 138.376 42.7145C137.933 42.4332 137.586 42.0398 137.336 41.5341C137.089 41.0284 136.965 40.4375 136.965 39.7614C136.965 39.0795 137.089 38.4844 137.336 37.9759C137.586 37.4673 137.933 37.0724 138.376 36.7912C138.822 36.5099 139.34 36.3693 139.931 36.3693C140.522 36.3693 141.039 36.5099 141.482 36.7912C141.928 37.0724 142.275 37.4673 142.522 37.9759C142.772 38.4844 142.897 39.0795 142.897 39.7614C142.897 40.4375 142.772 41.0284 142.522 41.5341C142.275 42.0398 141.928 42.4332 141.482 42.7145C141.039 42.9957 140.522 43.1364 139.931 43.1364ZM139.931 42.233C140.38 42.233 140.749 42.1179 141.039 41.8878C141.329 41.6577 141.543 41.3551 141.683 40.9801C141.822 40.6051 141.891 40.1989 141.891 39.7614C141.891 39.3239 141.822 38.9162 141.683 38.5384C141.543 38.1605 141.329 37.8551 141.039 37.6222C140.749 37.3892 140.38 37.2727 139.931 37.2727C139.482 37.2727 139.113 37.3892 138.823 37.6222C138.533 37.8551 138.319 38.1605 138.18 38.5384C138.04 38.9162 137.971 39.3239 137.971 39.7614C137.971 40.1989 138.04 40.6051 138.18 40.9801C138.319 41.3551 138.533 41.6577 138.823 41.8878C139.113 42.1179 139.482 42.233 139.931 42.233ZM153.159 36.4545L150.739 43H149.716L147.296 36.4545H148.387L150.194 41.6705H150.262L152.069 36.4545H153.159ZM154.487 43V36.4545H155.493V43H154.487ZM154.998 35.3636C154.802 35.3636 154.633 35.2969 154.491 35.1634C154.352 35.0298 154.282 34.8693 154.282 34.6818C154.282 34.4943 154.352 34.3338 154.491 34.2003C154.633 34.0668 154.802 34 154.998 34C155.194 34 155.362 34.0668 155.501 34.2003C155.643 34.3338 155.714 34.4943 155.714 34.6818C155.714 34.8693 155.643 35.0298 155.501 35.1634C155.362 35.2969 155.194 35.3636 154.998 35.3636ZM160.079 43.1364C159.448 43.1364 158.904 42.9972 158.447 42.7188C157.992 42.4375 157.641 42.0455 157.394 41.5426C157.15 41.0369 157.028 40.4489 157.028 39.7784C157.028 39.108 157.15 38.517 157.394 38.0057C157.641 37.4915 157.985 37.0909 158.425 36.804C158.869 36.5142 159.386 36.3693 159.977 36.3693C160.317 36.3693 160.654 36.4261 160.987 36.5398C161.319 36.6534 161.621 36.8381 161.894 37.0938C162.167 37.3466 162.384 37.6818 162.546 38.0994C162.708 38.517 162.789 39.0312 162.789 39.642V40.0682H157.744V39.1989H161.766C161.766 38.8295 161.692 38.5 161.545 38.2102C161.4 37.9205 161.192 37.6918 160.923 37.5241C160.656 37.3565 160.34 37.2727 159.977 37.2727C159.576 37.2727 159.229 37.3722 158.937 37.571C158.647 37.767 158.424 38.0227 158.268 38.3381C158.112 38.6534 158.033 38.9915 158.033 39.3523V39.9318C158.033 40.4261 158.119 40.8452 158.289 41.1889C158.462 41.5298 158.702 41.7898 159.009 41.9688C159.316 42.1449 159.673 42.233 160.079 42.233C160.343 42.233 160.582 42.196 160.795 42.1222C161.011 42.0455 161.197 41.9318 161.353 41.7812C161.509 41.6278 161.63 41.4375 161.715 41.2102L162.687 41.483C162.585 41.8125 162.413 42.1023 162.171 42.3523C161.93 42.5994 161.631 42.7926 161.276 42.9318C160.921 43.0682 160.522 43.1364 160.079 43.1364ZM165.802 43L163.808 36.4545H164.864L166.279 41.4659H166.347L167.745 36.4545H168.819L170.2 41.4489H170.268L171.683 36.4545H172.739L170.745 43H169.756L168.325 37.9716H168.222L166.79 43H165.802ZM16.5795 58.1364C15.9886 58.1364 15.4702 57.9957 15.0241 57.7145C14.581 57.4332 14.2344 57.0398 13.9844 56.5341C13.7372 56.0284 13.6136 55.4375 13.6136 54.7614C13.6136 54.0795 13.7372 53.4844 13.9844 52.9759C14.2344 52.4673 14.581 52.0724 15.0241 51.7912C15.4702 51.5099 15.9886 51.3693 16.5795 51.3693C17.1705 51.3693 17.6875 51.5099 18.1307 51.7912C18.5767 52.0724 18.9233 52.4673 19.1705 52.9759C19.4205 53.4844 19.5455 54.0795 19.5455 54.7614C19.5455 55.4375 19.4205 56.0284 19.1705 56.5341C18.9233 57.0398 18.5767 57.4332 18.1307 57.7145C17.6875 57.9957 17.1705 58.1364 16.5795 58.1364ZM16.5795 57.233C17.0284 57.233 17.3977 57.1179 17.6875 56.8878C17.9773 56.6577 18.1918 56.3551 18.331 55.9801C18.4702 55.6051 18.5398 55.1989 18.5398 54.7614C18.5398 54.3239 18.4702 53.9162 18.331 53.5384C18.1918 53.1605 17.9773 52.8551 17.6875 52.6222C17.3977 52.3892 17.0284 52.2727 16.5795 52.2727C16.1307 52.2727 15.7614 52.3892 15.4716 52.6222C15.1818 52.8551 14.9673 53.1605 14.8281 53.5384C14.6889 53.9162 14.6193 54.3239 14.6193 54.7614C14.6193 55.1989 14.6889 55.6051 14.8281 55.9801C14.9673 56.3551 15.1818 56.6577 15.4716 56.8878C15.7614 57.1179 16.1307 57.233 16.5795 57.233ZM21.0806 58V51.4545H22.0522V52.4432H22.1204C22.2397 52.1193 22.4556 51.8565 22.7681 51.6548C23.0806 51.4531 23.4329 51.3523 23.8249 51.3523C23.8988 51.3523 23.9911 51.3537 24.1019 51.3565C24.2127 51.3594 24.2965 51.3636 24.3533 51.3693V52.392C24.3192 52.3835 24.2411 52.3707 24.119 52.3537C23.9996 52.3338 23.8732 52.3239 23.7397 52.3239C23.4215 52.3239 23.1374 52.3906 22.8874 52.5241C22.6403 52.6548 22.4442 52.8366 22.2994 53.0696C22.1573 53.2997 22.0863 53.5625 22.0863 53.858V58H21.0806ZM31.392 58.1364C30.8466 58.1364 30.3651 57.9986 29.9474 57.723C29.5298 57.4446 29.2031 57.0526 28.9673 56.5469C28.7315 56.0384 28.6136 55.4375 28.6136 54.7443C28.6136 54.0568 28.7315 53.4602 28.9673 52.9545C29.2031 52.4489 29.5313 52.0582 29.9517 51.7827C30.3722 51.5071 30.858 51.3693 31.4091 51.3693C31.8352 51.3693 32.1719 51.4403 32.419 51.5824C32.669 51.7216 32.8594 51.8807 32.9901 52.0597C33.1236 52.2358 33.2273 52.3807 33.3011 52.4943H33.3864V49.2727H34.392V58H33.4205V56.9943H33.3011C33.2273 57.1136 33.1222 57.2642 32.9858 57.446C32.8494 57.625 32.6548 57.7855 32.402 57.9276C32.1491 58.0668 31.8125 58.1364 31.392 58.1364ZM31.5284 57.233C31.9318 57.233 32.2727 57.1278 32.5511 56.9176C32.8295 56.7045 33.0412 56.4105 33.1861 56.0355C33.331 55.6577 33.4034 55.2216 33.4034 54.7273C33.4034 54.2386 33.3324 53.8111 33.1903 53.4446C33.0483 53.0753 32.8381 52.7884 32.5597 52.5838C32.2813 52.3764 31.9375 52.2727 31.5284 52.2727C31.1023 52.2727 30.7472 52.3821 30.4631 52.6009C30.1818 52.8168 29.9702 53.1108 29.8281 53.483C29.6889 53.8523 29.6193 54.267 29.6193 54.7273C29.6193 55.1932 29.6903 55.6165 29.8324 55.9972C29.9773 56.375 30.1903 56.6761 30.4716 56.9006C30.7557 57.1222 31.108 57.233 31.5284 57.233ZM39.0327 58.1364C38.4418 58.1364 37.9233 57.9957 37.4773 57.7145C37.0341 57.4332 36.6875 57.0398 36.4375 56.5341C36.1903 56.0284 36.0668 55.4375 36.0668 54.7614C36.0668 54.0795 36.1903 53.4844 36.4375 52.9759C36.6875 52.4673 37.0341 52.0724 37.4773 51.7912C37.9233 51.5099 38.4418 51.3693 39.0327 51.3693C39.6236 51.3693 40.1406 51.5099 40.5838 51.7912C41.0298 52.0724 41.3764 52.4673 41.6236 52.9759C41.8736 53.4844 41.9986 54.0795 41.9986 54.7614C41.9986 55.4375 41.8736 56.0284 41.6236 56.5341C41.3764 57.0398 41.0298 57.4332 40.5838 57.7145C40.1406 57.9957 39.6236 58.1364 39.0327 58.1364ZM39.0327 57.233C39.4815 57.233 39.8509 57.1179 40.1406 56.8878C40.4304 56.6577 40.6449 56.3551 40.7841 55.9801C40.9233 55.6051 40.9929 55.1989 40.9929 54.7614C40.9929 54.3239 40.9233 53.9162 40.7841 53.5384C40.6449 53.1605 40.4304 52.8551 40.1406 52.6222C39.8509 52.3892 39.4815 52.2727 39.0327 52.2727C38.5838 52.2727 38.2145 52.3892 37.9247 52.6222C37.6349 52.8551 37.4205 53.1605 37.2812 53.5384C37.142 53.9162 37.0724 54.3239 37.0724 54.7614C37.0724 55.1989 37.142 55.6051 37.2812 55.9801C37.4205 56.3551 37.6349 56.6577 37.9247 56.8878C38.2145 57.1179 38.5838 57.233 39.0327 57.233ZM44.794 58L42.7997 51.4545H43.8565L45.2713 56.4659H45.3395L46.7372 51.4545H47.8111L49.1918 56.4489H49.2599L50.6747 51.4545H51.7315L49.7372 58H48.7486L47.3168 52.9716H47.2145L45.7827 58H44.794ZM54.0668 54.0625V58H53.0611V51.4545H54.0327V52.4773H54.1179C54.2713 52.1449 54.5043 51.8778 54.8168 51.6761C55.1293 51.4716 55.5327 51.3693 56.027 51.3693C56.4702 51.3693 56.858 51.4602 57.1903 51.642C57.5227 51.821 57.7813 52.0938 57.9659 52.4602C58.1506 52.8239 58.2429 53.2841 58.2429 53.8409V58H57.2372V53.9091C57.2372 53.3949 57.1037 52.9943 56.8366 52.7074C56.5696 52.4176 56.2031 52.2727 55.7372 52.2727C55.4162 52.2727 55.1293 52.3423 54.8764 52.4815C54.6264 52.6207 54.429 52.8239 54.2841 53.0909C54.1392 53.358 54.0668 53.6818 54.0668 54.0625ZM61.0863 49.2727V58H60.0806V49.2727H61.0863ZM65.5874 58.1364C64.9964 58.1364 64.478 57.9957 64.032 57.7145C63.5888 57.4332 63.2422 57.0398 62.9922 56.5341C62.745 56.0284 62.6214 55.4375 62.6214 54.7614C62.6214 54.0795 62.745 53.4844 62.9922 52.9759C63.2422 52.4673 63.5888 52.0724 64.032 51.7912C64.478 51.5099 64.9964 51.3693 65.5874 51.3693C66.1783 51.3693 66.6953 51.5099 67.1385 51.7912C67.5845 52.0724 67.9311 52.4673 68.1783 52.9759C68.4283 53.4844 68.5533 54.0795 68.5533 54.7614C68.5533 55.4375 68.4283 56.0284 68.1783 56.5341C67.9311 57.0398 67.5845 57.4332 67.1385 57.7145C66.6953 57.9957 66.1783 58.1364 65.5874 58.1364ZM65.5874 57.233C66.0362 57.233 66.4055 57.1179 66.6953 56.8878C66.9851 56.6577 67.1996 56.3551 67.3388 55.9801C67.478 55.6051 67.5476 55.1989 67.5476 54.7614C67.5476 54.3239 67.478 53.9162 67.3388 53.5384C67.1996 53.1605 66.9851 52.8551 66.6953 52.6222C66.4055 52.3892 66.0362 52.2727 65.5874 52.2727C65.1385 52.2727 64.7692 52.3892 64.4794 52.6222C64.1896 52.8551 63.9751 53.1605 63.8359 53.5384C63.6967 53.9162 63.6271 54.3239 63.6271 54.7614C63.6271 55.1989 63.6967 55.6051 63.8359 55.9801C63.9751 56.3551 64.1896 56.6577 64.4794 56.8878C64.7692 57.1179 65.1385 57.233 65.5874 57.233ZM72.0146 58.1534C71.5998 58.1534 71.2234 58.0753 70.8853 57.919C70.5472 57.7599 70.2788 57.5312 70.0799 57.233C69.881 56.9318 69.7816 56.5682 69.7816 56.142C69.7816 55.767 69.8555 55.4631 70.0032 55.2301C70.1509 54.9943 70.3484 54.8097 70.5955 54.6761C70.8427 54.5426 71.1154 54.4432 71.4137 54.3778C71.7148 54.3097 72.0174 54.2557 72.3214 54.2159C72.7191 54.1648 73.0415 54.1264 73.2887 54.1009C73.5387 54.0724 73.7205 54.0256 73.8342 53.9602C73.9506 53.8949 74.0089 53.7812 74.0089 53.6193V53.5852C74.0089 53.1648 73.8938 52.8381 73.6637 52.6051C73.4364 52.3722 73.0913 52.2557 72.6282 52.2557C72.1481 52.2557 71.7717 52.3608 71.4989 52.571C71.2262 52.7812 71.0344 53.0057 70.9237 53.2443L69.9691 52.9034C70.1396 52.5057 70.3668 52.196 70.6509 51.9744C70.9379 51.75 71.2504 51.5937 71.5884 51.5057C71.9293 51.4148 72.2646 51.3693 72.5941 51.3693C72.8043 51.3693 73.0458 51.3949 73.3185 51.446C73.5941 51.4943 73.8597 51.5952 74.1154 51.7486C74.3739 51.902 74.5884 52.1335 74.7589 52.4432C74.9293 52.7528 75.0146 53.1676 75.0146 53.6875V58H74.0089V57.1136H73.9577C73.8896 57.2557 73.7759 57.4077 73.6168 57.5696C73.4577 57.7315 73.2461 57.8693 72.9819 57.983C72.7177 58.0966 72.3952 58.1534 72.0146 58.1534ZM72.168 57.25C72.5657 57.25 72.9009 57.1719 73.1737 57.0156C73.4492 56.8594 73.6566 56.6577 73.7958 56.4105C73.9379 56.1634 74.0089 55.9034 74.0089 55.6307V54.7102C73.9663 54.7614 73.8725 54.8082 73.7276 54.8509C73.5856 54.8906 73.4208 54.9261 73.2333 54.9574C73.0487 54.9858 72.8683 55.0114 72.6921 55.0341C72.5188 55.054 72.3782 55.071 72.2702 55.0852C72.0089 55.1193 71.7646 55.1747 71.5373 55.2514C71.3129 55.3253 71.131 55.4375 70.9918 55.5881C70.8555 55.7358 70.7873 55.9375 70.7873 56.1932C70.7873 56.5426 70.9165 56.8068 71.1751 56.9858C71.4364 57.1619 71.7674 57.25 72.168 57.25ZM79.3217 58.1364C78.7763 58.1364 78.2947 57.9986 77.8771 57.723C77.4595 57.4446 77.1328 57.0526 76.897 56.5469C76.6612 56.0384 76.5433 55.4375 76.5433 54.7443C76.5433 54.0568 76.6612 53.4602 76.897 52.9545C77.1328 52.4489 77.4609 52.0582 77.8814 51.7827C78.3018 51.5071 78.7876 51.3693 79.3388 51.3693C79.7649 51.3693 80.1016 51.4403 80.3487 51.5824C80.5987 51.7216 80.7891 51.8807 80.9197 52.0597C81.0533 52.2358 81.157 52.3807 81.2308 52.4943H81.3161V49.2727H82.3217V58H81.3501V56.9943H81.2308C81.157 57.1136 81.0518 57.2642 80.9155 57.446C80.7791 57.625 80.5845 57.7855 80.3317 57.9276C80.0788 58.0668 79.7422 58.1364 79.3217 58.1364ZM79.4581 57.233C79.8615 57.233 80.2024 57.1278 80.4808 56.9176C80.7592 56.7045 80.9709 56.4105 81.1158 56.0355C81.2607 55.6577 81.3331 55.2216 81.3331 54.7273C81.3331 54.2386 81.2621 53.8111 81.12 53.4446C80.978 53.0753 80.7678 52.7884 80.4893 52.5838C80.2109 52.3764 79.8672 52.2727 79.4581 52.2727C79.032 52.2727 78.6768 52.3821 78.3928 52.6009C78.1115 52.8168 77.8999 53.1108 77.7578 53.483C77.6186 53.8523 77.549 54.267 77.549 54.7273C77.549 55.1932 77.62 55.6165 77.7621 55.9972C77.907 56.375 78.12 56.6761 78.4013 56.9006C78.6854 57.1222 79.0376 57.233 79.4581 57.233ZM88.326 60.4545C88.1555 60.4545 88.0036 60.4403 87.87 60.4119C87.7365 60.3864 87.6442 60.3608 87.593 60.3352L87.8487 59.4489C88.093 59.5114 88.3089 59.5341 88.4964 59.517C88.6839 59.5 88.8501 59.4162 88.995 59.2656C89.1428 59.1179 89.2777 58.8778 89.3999 58.5455L89.5874 58.0341L87.1669 51.4545H88.2578L90.0646 56.6705H90.1328L91.9396 51.4545H93.0305L90.2521 58.9545C90.1271 59.2926 89.9723 59.5724 89.7876 59.794C89.603 60.0185 89.3885 60.1847 89.1442 60.2926C88.9027 60.4006 88.63 60.4545 88.326 60.4545ZM96.7827 58.1364C96.1918 58.1364 95.6733 57.9957 95.2273 57.7145C94.7841 57.4332 94.4375 57.0398 94.1875 56.5341C93.9403 56.0284 93.8168 55.4375 93.8168 54.7614C93.8168 54.0795 93.9403 53.4844 94.1875 52.9759C94.4375 52.4673 94.7841 52.0724 95.2273 51.7912C95.6733 51.5099 96.1918 51.3693 96.7827 51.3693C97.3736 51.3693 97.8906 51.5099 98.3338 51.7912C98.7798 52.0724 99.1264 52.4673 99.3736 52.9759C99.6236 53.4844 99.7486 54.0795 99.7486 54.7614C99.7486 55.4375 99.6236 56.0284 99.3736 56.5341C99.1264 57.0398 98.7798 57.4332 98.3338 57.7145C97.8906 57.9957 97.3736 58.1364 96.7827 58.1364ZM96.7827 57.233C97.2315 57.233 97.6009 57.1179 97.8906 56.8878C98.1804 56.6577 98.3949 56.3551 98.5341 55.9801C98.6733 55.6051 98.7429 55.1989 98.7429 54.7614C98.7429 54.3239 98.6733 53.9162 98.5341 53.5384C98.3949 53.1605 98.1804 52.8551 97.8906 52.6222C97.6009 52.3892 97.2315 52.2727 96.7827 52.2727C96.3338 52.2727 95.9645 52.3892 95.6747 52.6222C95.3849 52.8551 95.1705 53.1605 95.0312 53.5384C94.892 53.9162 94.8224 54.3239 94.8224 54.7614C94.8224 55.1989 94.892 55.6051 95.0312 55.9801C95.1705 56.3551 95.3849 56.6577 95.6747 56.8878C95.9645 57.1179 96.3338 57.233 96.7827 57.233ZM105.409 55.3239V51.4545H106.414V58H105.409V56.892H105.341C105.187 57.2244 104.949 57.5071 104.625 57.7401C104.301 57.9702 103.892 58.0852 103.397 58.0852C102.988 58.0852 102.625 57.9957 102.306 57.8168C101.988 57.6349 101.738 57.3622 101.556 56.9986C101.375 56.6321 101.284 56.1705 101.284 55.6136V51.4545H102.289V55.5455C102.289 56.0227 102.423 56.4034 102.69 56.6875C102.96 56.9716 103.304 57.1136 103.721 57.1136C103.971 57.1136 104.225 57.0497 104.484 56.9219C104.745 56.794 104.964 56.598 105.14 56.3338C105.319 56.0696 105.409 55.733 105.409 55.3239ZM108.256 58V51.4545H109.228V52.4432H109.296C109.415 52.1193 109.631 51.8565 109.944 51.6548C110.256 51.4531 110.609 51.3523 111.001 51.3523C111.075 51.3523 111.167 51.3537 111.278 51.3565C111.388 51.3594 111.472 51.3636 111.529 51.3693V52.392C111.495 52.3835 111.417 52.3707 111.295 52.3537C111.175 52.3338 111.049 52.3239 110.915 52.3239C110.597 52.3239 110.313 52.3906 110.063 52.5241C109.816 52.6548 109.62 52.8366 109.475 53.0696C109.333 53.2997 109.262 53.5625 109.262 53.858V58H108.256ZM118.755 58.1364C118.142 58.1364 117.613 57.9915 117.17 57.7017C116.727 57.4119 116.386 57.0128 116.147 56.5043C115.909 55.9957 115.789 55.4148 115.789 54.7614C115.789 54.0966 115.912 53.5099 116.156 53.0014C116.403 52.4901 116.747 52.0909 117.187 51.804C117.63 51.5142 118.147 51.3693 118.738 51.3693C119.199 51.3693 119.613 51.4545 119.983 51.625C120.352 51.7955 120.654 52.0341 120.89 52.3409C121.126 52.6477 121.272 53.0057 121.329 53.4148H120.324C120.247 53.1165 120.076 52.8523 119.812 52.6222C119.551 52.3892 119.199 52.2727 118.755 52.2727C118.363 52.2727 118.02 52.375 117.724 52.5795C117.431 52.7812 117.203 53.0668 117.038 53.4361C116.876 53.8026 116.795 54.233 116.795 54.7273C116.795 55.233 116.875 55.6733 117.034 56.0483C117.196 56.4233 117.423 56.7145 117.716 56.9219C118.011 57.1293 118.358 57.233 118.755 57.233C119.017 57.233 119.254 57.1875 119.467 57.0966C119.68 57.0057 119.86 56.875 120.008 56.7045C120.156 56.5341 120.261 56.3295 120.324 56.0909H121.329C121.272 56.4773 121.132 56.8253 120.907 57.1349C120.686 57.4418 120.392 57.6861 120.025 57.8679C119.662 58.0469 119.238 58.1364 118.755 58.1364ZM125.544 58.1364C124.913 58.1364 124.369 57.9972 123.912 57.7188C123.457 57.4375 123.106 57.0455 122.859 56.5426C122.615 56.0369 122.493 55.4489 122.493 54.7784C122.493 54.108 122.615 53.517 122.859 53.0057C123.106 52.4915 123.45 52.0909 123.89 51.804C124.333 51.5142 124.85 51.3693 125.441 51.3693C125.782 51.3693 126.119 51.4261 126.451 51.5398C126.784 51.6534 127.086 51.8381 127.359 52.0938C127.632 52.3466 127.849 52.6818 128.011 53.0994C128.173 53.517 128.254 54.0312 128.254 54.642V55.0682H123.208V54.1989H127.231C127.231 53.8295 127.157 53.5 127.01 53.2102C126.865 52.9205 126.657 52.6918 126.387 52.5241C126.12 52.3565 125.805 52.2727 125.441 52.2727C125.041 52.2727 124.694 52.3722 124.402 52.571C124.112 52.767 123.889 53.0227 123.733 53.3381C123.576 53.6534 123.498 53.9915 123.498 54.3523V54.9318C123.498 55.4261 123.583 55.8452 123.754 56.1889C123.927 56.5298 124.167 56.7898 124.474 56.9688C124.781 57.1449 125.137 57.233 125.544 57.233C125.808 57.233 126.047 57.196 126.26 57.1222C126.475 57.0455 126.662 56.9318 126.818 56.7812C126.974 56.6278 127.095 56.4375 127.18 56.2102L128.152 56.483C128.049 56.8125 127.877 57.1023 127.636 57.3523C127.395 57.5994 127.096 57.7926 126.741 57.9318C126.386 58.0682 125.987 58.1364 125.544 58.1364ZM129.784 58V51.4545H130.755V52.4432H130.824C130.943 52.1193 131.159 51.8565 131.471 51.6548C131.784 51.4531 132.136 51.3523 132.528 51.3523C132.602 51.3523 132.694 51.3537 132.805 51.3565C132.916 51.3594 133 51.3636 133.056 51.3693V52.392C133.022 52.3835 132.944 52.3707 132.822 52.3537C132.703 52.3338 132.576 52.3239 132.443 52.3239C132.125 52.3239 131.841 52.3906 131.591 52.5241C131.343 52.6548 131.147 52.8366 131.002 53.0696C130.86 53.2997 130.789 53.5625 130.789 53.858V58H129.784ZM137.505 51.4545V52.3068H134.113V51.4545H137.505ZM135.102 49.8864H136.108V56.125C136.108 56.4091 136.149 56.6222 136.231 56.7642C136.316 56.9034 136.424 56.9972 136.555 57.0455C136.689 57.0909 136.829 57.1136 136.977 57.1136C137.088 57.1136 137.179 57.108 137.25 57.0966C137.321 57.0824 137.377 57.071 137.42 57.0625L137.625 57.9659C137.556 57.9915 137.461 58.017 137.339 58.0426C137.217 58.071 137.062 58.0852 136.875 58.0852C136.591 58.0852 136.312 58.0241 136.039 57.902C135.77 57.7798 135.545 57.5938 135.366 57.3438C135.19 57.0938 135.102 56.7784 135.102 56.3977V49.8864ZM139.018 58V51.4545H140.024V58H139.018ZM139.529 50.3636C139.333 50.3636 139.164 50.2969 139.022 50.1634C138.883 50.0298 138.814 49.8693 138.814 49.6818C138.814 49.4943 138.883 49.3338 139.022 49.2003C139.164 49.0668 139.333 49 139.529 49C139.725 49 139.893 49.0668 140.032 49.2003C140.174 49.3338 140.245 49.4943 140.245 49.6818C140.245 49.8693 140.174 50.0298 140.032 50.1634C139.893 50.2969 139.725 50.3636 139.529 50.3636ZM144.781 51.4545V52.3068H141.252V51.4545H144.781ZM142.309 58V50.5511C142.309 50.1761 142.397 49.8636 142.573 49.6136C142.749 49.3636 142.978 49.1761 143.259 49.0511C143.54 48.9261 143.837 48.8636 144.15 48.8636C144.397 48.8636 144.599 48.8835 144.755 48.9233C144.911 48.9631 145.028 49 145.104 49.0341L144.815 49.9034C144.763 49.8864 144.692 49.8651 144.602 49.8395C144.513 49.8139 144.397 49.8011 144.252 49.8011C143.92 49.8011 143.68 49.8849 143.532 50.0526C143.387 50.2202 143.315 50.4659 143.315 50.7898V58H142.309ZM146.19 58V51.4545H147.196V58H146.19ZM146.701 50.3636C146.505 50.3636 146.336 50.2969 146.194 50.1634C146.055 50.0298 145.985 49.8693 145.985 49.6818C145.985 49.4943 146.055 49.3338 146.194 49.2003C146.336 49.0668 146.505 49 146.701 49C146.897 49 147.065 49.0668 147.204 49.2003C147.346 49.3338 147.417 49.4943 147.417 49.6818C147.417 49.8693 147.346 50.0298 147.204 50.1634C147.065 50.2969 146.897 50.3636 146.701 50.3636ZM151.697 58.1364C151.083 58.1364 150.555 57.9915 150.112 57.7017C149.668 57.4119 149.327 57.0128 149.089 56.5043C148.85 55.9957 148.731 55.4148 148.731 54.7614C148.731 54.0966 148.853 53.5099 149.097 53.0014C149.344 52.4901 149.688 52.0909 150.129 51.804C150.572 51.5142 151.089 51.3693 151.68 51.3693C152.14 51.3693 152.555 51.4545 152.924 51.625C153.293 51.7955 153.596 52.0341 153.832 52.3409C154.067 52.6477 154.214 53.0057 154.271 53.4148H153.265C153.188 53.1165 153.018 52.8523 152.754 52.6222C152.492 52.3892 152.14 52.2727 151.697 52.2727C151.305 52.2727 150.961 52.375 150.665 52.5795C150.373 52.7812 150.144 53.0668 149.979 53.4361C149.817 53.8026 149.737 54.233 149.737 54.7273C149.737 55.233 149.816 55.6733 149.975 56.0483C150.137 56.4233 150.364 56.7145 150.657 56.9219C150.952 57.1293 151.299 57.233 151.697 57.233C151.958 57.233 152.195 57.1875 152.408 57.0966C152.621 57.0057 152.802 56.875 152.95 56.7045C153.097 56.5341 153.202 56.3295 153.265 56.0909H154.271C154.214 56.4773 154.073 56.8253 153.849 57.1349C153.627 57.4418 153.333 57.6861 152.967 57.8679C152.603 58.0469 152.18 58.1364 151.697 58.1364ZM157.667 58.1534C157.252 58.1534 156.876 58.0753 156.538 57.919C156.2 57.7599 155.931 57.5312 155.732 57.233C155.533 56.9318 155.434 56.5682 155.434 56.142C155.434 55.767 155.508 55.4631 155.656 55.2301C155.803 54.9943 156.001 54.8097 156.248 54.6761C156.495 54.5426 156.768 54.4432 157.066 54.3778C157.367 54.3097 157.67 54.2557 157.974 54.2159C158.371 54.1648 158.694 54.1264 158.941 54.1009C159.191 54.0724 159.373 54.0256 159.487 53.9602C159.603 53.8949 159.661 53.7812 159.661 53.6193V53.5852C159.661 53.1648 159.546 52.8381 159.316 52.6051C159.089 52.3722 158.744 52.2557 158.281 52.2557C157.8 52.2557 157.424 52.3608 157.151 52.571C156.879 52.7812 156.687 53.0057 156.576 53.2443L155.621 52.9034C155.792 52.5057 156.019 52.196 156.303 51.9744C156.59 51.75 156.903 51.5937 157.241 51.5057C157.582 51.4148 157.917 51.3693 158.246 51.3693C158.457 51.3693 158.698 51.3949 158.971 51.446C159.246 51.4943 159.512 51.5952 159.768 51.7486C160.026 51.902 160.241 52.1335 160.411 52.4432C160.582 52.7528 160.667 53.1676 160.667 53.6875V58H159.661V57.1136H159.61C159.542 57.2557 159.428 57.4077 159.269 57.5696C159.11 57.7315 158.898 57.8693 158.634 57.983C158.37 58.0966 158.048 58.1534 157.667 58.1534ZM157.82 57.25C158.218 57.25 158.553 57.1719 158.826 57.0156C159.102 56.8594 159.309 56.6577 159.448 56.4105C159.59 56.1634 159.661 55.9034 159.661 55.6307V54.7102C159.619 54.7614 159.525 54.8082 159.38 54.8509C159.238 54.8906 159.073 54.9261 158.886 54.9574C158.701 54.9858 158.521 55.0114 158.344 55.0341C158.171 55.054 158.031 55.071 157.923 55.0852C157.661 55.1193 157.417 55.1747 157.19 55.2514C156.965 55.3253 156.783 55.4375 156.644 55.5881C156.508 55.7358 156.44 55.9375 156.44 56.1932C156.44 56.5426 156.569 56.8068 156.827 56.9858C157.089 57.1619 157.42 57.25 157.82 57.25ZM165.349 51.4545V52.3068H161.957V51.4545H165.349ZM162.946 49.8864H163.951V56.125C163.951 56.4091 163.993 56.6222 164.075 56.7642C164.16 56.9034 164.268 56.9972 164.399 57.0455C164.532 57.0909 164.673 57.1136 164.821 57.1136C164.931 57.1136 165.022 57.108 165.093 57.0966C165.164 57.0824 165.221 57.071 165.264 57.0625L165.468 57.9659C165.4 57.9915 165.305 58.017 165.183 58.0426C165.061 58.071 164.906 58.0852 164.718 58.0852C164.434 58.0852 164.156 58.0241 163.883 57.902C163.613 57.7798 163.389 57.5938 163.21 57.3438C163.034 57.0938 162.946 56.7784 162.946 56.3977V49.8864ZM169.536 58.1364C168.905 58.1364 168.361 57.9972 167.904 57.7188C167.449 57.4375 167.098 57.0455 166.851 56.5426C166.607 56.0369 166.485 55.4489 166.485 54.7784C166.485 54.108 166.607 53.517 166.851 53.0057C167.098 52.4915 167.442 52.0909 167.882 51.804C168.326 51.5142 168.843 51.3693 169.434 51.3693C169.775 51.3693 170.111 51.4261 170.444 51.5398C170.776 51.6534 171.078 51.8381 171.351 52.0938C171.624 52.3466 171.841 52.6818 172.003 53.0994C172.165 53.517 172.246 54.0312 172.246 54.642V55.0682H167.201V54.1989H171.223C171.223 53.8295 171.15 53.5 171.002 53.2102C170.857 52.9205 170.65 52.6918 170.38 52.5241C170.113 52.3565 169.797 52.2727 169.434 52.2727C169.033 52.2727 168.686 52.3722 168.394 52.571C168.104 52.767 167.881 53.0227 167.725 53.3381C167.569 53.6534 167.49 53.9915 167.49 54.3523V54.9318C167.49 55.4261 167.576 55.8452 167.746 56.1889C167.919 56.5298 168.159 56.7898 168.466 56.9688C168.773 57.1449 169.13 57.233 169.536 57.233C169.8 57.233 170.039 57.196 170.252 57.1222C170.468 57.0455 170.654 56.9318 170.81 56.7812C170.966 56.6278 171.087 56.4375 171.172 56.2102L172.144 56.483C172.042 56.8125 171.87 57.1023 171.628 57.3523C171.387 57.5994 171.088 57.7926 170.733 57.9318C170.378 58.0682 169.979 58.1364 169.536 58.1364ZM174.509 58.0682C174.299 58.0682 174.118 57.9929 173.968 57.8423C173.817 57.6918 173.742 57.5114 173.742 57.3011C173.742 57.0909 173.817 56.9105 173.968 56.7599C174.118 56.6094 174.299 56.5341 174.509 56.5341C174.719 56.5341 174.9 56.6094 175.05 56.7599C175.201 56.9105 175.276 57.0909 175.276 57.3011C175.276 57.4403 175.24 57.5682 175.169 57.6847C175.101 57.8011 175.009 57.8949 174.892 57.9659C174.779 58.0341 174.651 58.0682 174.509 58.0682Z" fill="white"/>
<rect x="0.75" y="0.75" width="192.5" height="70.5" rx="4.25" stroke="#F3F4F6" stroke-width="0.5"/>
<path d="M96.2929 78.2929L89.2929 71.2929C89.1054 71.1054 88.851 71 88.5858 71H105.414C105.149 71 104.895 71.1054 104.707 71.2929L97.7071 78.2929C97.3166 78.6834 96.6834 78.6834 96.2929 78.2929Z" fill="#E41B28"/>
</svg>
