<svg width="100" height="100" viewBox="0 0 100 100" fill="none" xmlns="http://www.w3.org/2000/svg">
<path d="M49.9991 75.6948C51.5826 75.6948 53.2172 75.0512 54.3408 73.9172C55.5258 72.7118 56.1387 71.1795 56.1898 69.504C56.2102 68.9217 56.0979 68.319 55.9344 67.7469C55.6586 66.8071 55.1172 65.8571 54.4225 65.1624C53.83 64.5698 53.1761 64.1612 52.4201 63.8445C51.6335 63.5074 50.898 63.3133 50.0093 63.3133C49.4678 63.3133 48.8345 63.4155 48.3135 63.5483C47.3838 63.7934 46.3623 64.3962 45.6779 65.0806C44.5439 66.2146 43.7675 67.8696 43.8288 69.4938C43.8799 71.0977 44.4418 72.6198 45.5655 73.7845C46.7608 75.0614 48.2932 75.6029 49.9991 75.6949C51.2658 75.7664 52.7368 75.0717 53.6154 74.2034C54.5041 73.3146 55.1682 71.8641 55.1069 70.5871C55.0456 69.2693 54.6165 67.9003 53.6154 66.9708C52.5836 66.0309 51.4089 65.5508 49.9991 65.4793C49.9582 65.4793 49.9173 65.4793 49.8765 65.4691C50.326 65.5304 50.7857 65.5917 51.2352 65.6529C51.1126 65.6325 51.0206 65.6121 50.9083 65.561C51.3169 65.7347 51.7255 65.9083 52.1239 66.0718C52.0524 66.0412 51.9911 66.0003 51.9298 65.9594C52.2772 66.225 52.6143 66.4907 52.9616 66.7562C52.8697 66.6847 52.7982 66.6132 52.7267 66.5213C52.9923 66.8686 53.2579 67.2057 53.5235 67.5531C53.4826 67.4918 53.4418 67.4305 53.4111 67.359C53.5848 67.7676 53.7584 68.1762 53.9219 68.5746C53.881 68.4623 53.8504 68.3601 53.83 68.2477C53.8913 68.6972 53.9525 69.1569 54.0138 69.6064C54.0036 69.4532 54.0036 69.5247 54.0138 69.3715C53.9525 69.8209 53.8913 70.2807 53.83 70.7301C53.8504 70.6076 53.8708 70.5156 53.9219 70.4032C53.7482 70.8119 53.5746 71.2205 53.4111 71.6189C53.4418 71.5474 53.4826 71.4861 53.5235 71.4248C53.2579 71.7721 52.9923 72.1093 52.7267 72.4566C52.7982 72.3646 52.8697 72.2931 52.9616 72.2216C52.6143 72.4872 52.2772 72.7529 51.9298 73.0184C51.9911 72.9776 52.0524 72.9367 52.1239 72.9061C51.7153 73.0797 51.3067 73.2534 50.9083 73.4169C51.0206 73.376 51.1228 73.3454 51.2352 73.3249C50.7857 73.3862 50.326 73.4475 49.8765 73.5088C50.0297 73.4986 49.9582 73.4986 50.1114 73.5088C49.662 73.4475 49.2022 73.3862 48.7528 73.3249C48.8753 73.3454 48.9673 73.3658 49.0797 73.4169C48.671 73.2432 48.2624 73.0695 47.864 72.9061C47.9355 72.9367 47.9968 72.9776 48.0581 73.0184C47.7108 72.7528 47.3736 72.4872 47.0263 72.2216C47.1183 72.2931 47.1898 72.3646 47.2613 72.4566C46.9957 72.1092 46.7301 71.7721 46.4645 71.4248C46.5053 71.4861 46.5462 71.5474 46.5768 71.6189C46.4032 71.2103 46.2295 70.8017 46.066 70.4032C46.1069 70.5156 46.1375 70.6178 46.158 70.7301C46.0967 70.2807 46.0354 69.8209 45.9741 69.3715C45.9843 69.5247 45.9843 69.4532 45.9741 69.6064C46.0354 69.1569 46.0967 68.6972 46.158 68.2477C46.1375 68.3703 46.1171 68.4623 46.066 68.5746C46.2397 68.166 46.4134 67.7574 46.5768 67.359C46.5462 67.4305 46.5053 67.4918 46.4645 67.5531C46.7301 67.2057 46.9957 66.8686 47.2613 66.5213C47.1898 66.6132 47.1183 66.6847 47.0263 66.7562C47.3737 66.4906 47.7108 66.225 48.0581 65.9594C47.9968 66.0003 47.9355 66.0412 47.864 66.0718C48.2726 65.8981 48.6813 65.7245 49.0797 65.561C48.9673 65.6019 48.8651 65.6325 48.7528 65.6529C49.2022 65.5917 49.662 65.5304 50.1114 65.4691C50.0706 65.4691 50.0297 65.4793 49.9889 65.4793C48.6812 65.4793 47.3021 66.0514 46.3726 66.9708C45.4838 67.8595 44.8198 69.3101 44.8811 70.5871C44.9424 71.9049 45.3714 73.2739 46.3726 74.2034C47.3839 75.1126 48.62 75.6949 49.9991 75.6949L49.9991 75.6948Z" fill="#F31629"/>
<path d="M44.8918 27.5072V36.5686V51.0239V54.3542C44.8918 55.6618 45.4639 57.0409 46.3833 57.9705C47.2721 58.8592 48.7227 59.5233 49.9996 59.462C51.3175 59.4007 52.6864 58.9716 53.6159 57.9705C54.5354 56.9693 55.1074 55.7434 55.1074 54.3542V45.2928V30.8375V27.5072C55.1074 26.1996 54.5354 24.8204 53.6159 23.8909C52.7272 23.0021 51.2766 22.3381 49.9996 22.3994C48.6818 22.4607 47.3129 22.8897 46.3833 23.8909C45.4741 24.892 44.8918 26.1179 44.8918 27.5072Z" fill="#F31629"/>
<path d="M89.7896 50.0127C89.7896 52.056 89.6466 54.0888 89.381 56.1115C89.4422 55.662 89.5035 55.2023 89.5648 54.7528C89.0336 58.6246 88.0018 62.4247 86.4899 66.0309C86.6636 65.6223 86.8372 65.2137 87.0007 64.8153C85.499 68.3806 83.5376 71.7415 81.1777 74.8062C81.4433 74.4588 81.7089 74.1217 81.9745 73.7744C79.5943 76.8493 76.836 79.6177 73.761 81.9879C74.1084 81.7223 74.4455 81.4567 74.7928 81.1911C71.7281 83.5509 68.3672 85.5021 64.8019 87.0141C65.2105 86.8404 65.6191 86.6667 66.0176 86.5033C62.4113 88.0152 58.6112 89.047 54.7394 89.5782C55.1889 89.5169 55.6486 89.4556 56.0981 89.3943C52.0527 89.9358 47.9358 89.9358 43.8902 89.3943C44.3397 89.4556 44.7994 89.5169 45.2489 89.5782C41.377 89.047 37.5769 88.0152 33.9707 86.5033C34.3793 86.6769 34.788 86.8506 35.1864 87.0141C31.6211 85.5123 28.2602 83.5509 25.1955 81.1911C25.5428 81.4567 25.8799 81.7223 26.2273 81.9879C23.1523 79.6077 20.3839 76.8493 18.0138 73.7744C18.2794 74.1217 18.545 74.4589 18.8106 74.8062C16.4507 71.7415 14.4996 68.3806 12.9876 64.8153C13.1613 65.2239 13.3349 65.6325 13.4984 66.0309C11.9865 62.4247 10.9547 58.6246 10.4235 54.7528C10.4847 55.2023 10.546 55.662 10.6073 56.1115C10.0659 52.0661 10.0659 47.9491 10.6073 43.9036C10.546 44.3531 10.4847 44.8128 10.4235 45.2623C10.9547 41.3904 11.9865 37.5903 13.4984 33.9841C13.3247 34.3927 13.1511 34.8014 12.9876 35.1998C14.4893 31.6345 16.4507 28.2735 18.8106 25.2089C18.545 25.5562 18.2794 25.8933 18.0138 26.2406C20.394 23.1657 23.1523 20.3973 26.2273 18.0271C25.8799 18.2928 25.5428 18.5584 25.1955 18.824C28.2602 16.4641 31.6211 14.5129 35.1864 13.001C34.7778 13.1746 34.3691 13.3483 33.9707 13.5118C37.5769 11.9998 41.377 10.9681 45.2489 10.4368C44.7994 10.4981 44.3397 10.5594 43.8902 10.6207C47.9356 10.0793 52.0525 10.0793 56.0981 10.6207C55.6486 10.5594 55.1889 10.4981 54.7394 10.4368C58.6112 10.968 62.4113 11.9998 66.0176 13.5118C65.6089 13.3381 65.2003 13.1644 64.8019 13.001C68.3672 14.5027 71.7281 16.4641 74.7928 18.824C74.4455 18.5583 74.1083 18.2927 73.761 18.0271C76.836 20.4074 79.6044 23.1657 81.9745 26.2406C81.7089 25.8933 81.4433 25.5562 81.1777 25.2089C83.5376 28.2735 85.4887 31.6345 87.0007 35.1998C86.827 34.7911 86.6533 34.3825 86.4899 33.9841C88.0018 37.5903 89.0336 41.3904 89.5648 45.2623C89.5035 44.8128 89.4422 44.3531 89.381 43.9036C89.6466 45.9365 89.7794 47.9695 89.7896 50.0126C89.7896 51.3202 90.3617 52.6993 91.2811 53.6289C92.1698 54.5176 93.6204 55.1816 94.8974 55.1204C96.2152 55.0591 97.5841 54.63 98.5137 53.6289C99.4331 52.6277 100.015 51.4018 100.005 50.0126C99.9949 44.8843 99.2288 39.6742 97.6453 34.7912C96.1027 30.0511 93.8962 25.4744 91.0051 21.4085C89.4625 19.2427 87.7769 17.1485 85.9278 15.228C84.0787 13.3176 82.0662 11.6321 79.9617 10.0179C75.9776 6.96331 71.5338 4.65463 66.8346 2.9282C62.0332 1.16089 56.8947 0.241432 51.797 0.0370709C46.6278 -0.167253 41.3361 0.476354 36.3508 1.88611C31.58 3.2448 26.9216 5.32887 22.774 8.05637C18.6468 10.7738 14.8568 14.0531 11.7103 17.8635C10.0247 19.9067 8.44125 22.0519 7.08263 24.3197C5.6933 26.6387 4.55932 29.0802 3.5377 31.5729C1.58655 36.3232 0.524022 41.38 0.135848 46.498C-0.262563 51.6671 0.22779 56.9486 1.44346 61.985C2.61828 66.8375 4.60004 71.5877 7.1949 75.858C9.73858 80.0465 12.926 83.9387 16.5933 87.1974C20.3017 90.4868 24.4593 93.3167 28.985 95.3597C31.447 96.4732 33.9601 97.454 36.5547 98.1793C39.2415 98.9251 41.969 99.3848 44.7376 99.7015C49.917 100.304 55.1882 99.9671 60.2859 98.9353C65.2098 97.9443 70.0111 96.1056 74.3937 93.6538C78.6741 91.2633 82.6685 88.1783 86.0498 84.6333C89.4619 81.068 92.4244 76.9614 94.6208 72.5379C96.8682 68.0225 98.5233 63.2008 99.2893 58.2154C99.7082 55.4878 99.9942 52.75 99.9942 49.9919C99.9942 48.6842 99.4221 47.3051 98.5027 46.3756C97.614 45.4868 96.1634 44.8228 94.8864 44.8841C93.5686 44.9454 92.1997 45.3744 91.2701 46.3756C90.3609 47.3971 89.7888 48.623 89.7888 50.0124L89.7896 50.0127Z" fill="#F31629"/>
</svg>
