<svg width="124" height="98" viewBox="0 0 124 98" fill="none" xmlns="http://www.w3.org/2000/svg">
<path d="M88.7108 24.9265L76.883 22.1256L80.5916 6.46517C81.0324 4.6035 79.8623 2.7073 78.0007 2.26645C76.139 1.82558 74.2428 2.99571 73.802 4.85733L69.2634 24.0226C68.8226 25.8843 69.9927 27.7805 71.8543 28.2214L87.0771 31.8263C88.9387 32.2671 90.8349 31.097 91.2758 29.2354C91.8519 27.2896 90.6818 25.3933 88.711 24.9266L88.7108 24.9265Z" fill="#FF4B4B"/>
<path d="M113.946 34.6035C119.34 11.8241 105.215 -11.0671 82.4354 -16.4614C59.656 -21.8558 36.7648 -7.73029 31.3705 15.0489C29.996 20.8532 29.904 26.6143 30.9271 32.061L5.69938 58.0083C2.92455 60.9364 1.85492 64.9622 3.02257 68.8247C4.18955 72.6863 7.20166 75.5973 11.0351 76.5051L61.1935 88.3831C65.1361 89.3167 69.133 88.0655 71.7995 85.1118C74.5743 82.1837 75.4246 78.1059 74.2578 74.2436L72.0128 67.1191C91.479 67.4506 109.303 54.2062 113.946 34.6028L113.946 34.6035ZM66.7978 80.342C66.3396 80.8119 65.0171 82.0017 62.9363 81.5089L12.7779 69.6309C10.6969 69.1381 10.0487 67.4808 9.84985 66.8561C9.65107 66.2306 9.38302 64.4326 10.7835 62.9135L45.7956 26.9079C47.196 25.3888 48.9744 25.6946 49.6313 25.8501C50.2882 26.0057 51.8796 26.6141 52.5852 28.5157L67.7315 76.3994C68.2776 78.4948 67.2568 79.8722 66.7986 80.3421L66.7978 80.342ZM69.7662 59.9952L59.2196 26.3858C58.0268 22.6334 55.098 19.8584 51.2653 18.9507C47.4318 18.0429 43.5703 19.2099 40.8213 22.0289L37.3422 25.4849C37.2235 22.5654 37.5693 19.6404 38.2696 16.6833C42.783 -2.37257 61.8809 -14.1575 80.827 -9.67089C99.7731 -5.18427 111.558 13.9145 107.072 32.8606C102.974 50.1641 86.8984 61.3928 69.7652 59.9956L69.7662 59.9952Z" fill="#FF4B4B"/>
<path d="M43.6294 67.8002C43.1423 69.8567 41.0808 71.1288 39.0243 70.6418C36.9678 70.1548 35.6949 68.093 36.1819 66.0365C36.6689 63.98 38.7312 62.7081 40.7877 63.1951C42.8442 63.6821 44.1164 65.7437 43.6294 67.8002Z" fill="#FF4B4B"/>
<path d="M46.3663 37.6834C44.0141 37.3579 41.7697 39.0241 41.4436 41.3753L39.2368 57.0444C39.0349 58.3842 39.8709 59.739 41.159 60.1595C42.6663 60.6318 44.2396 59.8483 44.8219 58.367L49.8766 43.3723L50.0582 42.6053C50.3843 40.2541 48.7183 38.0089 46.3662 37.6834L46.3663 37.6834Z" fill="#FF4B4B"/>
</svg>
