<svg width="38" height="23" viewBox="0 0 38 23" fill="none" xmlns="http://www.w3.org/2000/svg">
<path d="M22.9312 11.5098C22.9312 17.6822 17.9754 22.686 11.8622 22.686C5.74896 22.686 0.793213 17.6822 0.793213 11.5098C0.793213 5.33728 5.74896 0.333496 11.8622 0.333496C17.9754 0.333496 22.9312 5.33728 22.9312 11.5098Z" fill="#ED0006"/>
<path d="M37.2908 11.5098C37.2908 17.6822 32.335 22.686 26.2218 22.686C20.1086 22.686 15.1528 17.6822 15.1528 11.5098C15.1528 5.33728 20.1086 0.333496 26.2218 0.333496C32.335 0.333496 37.2908 5.33728 37.2908 11.5098Z" fill="#0099DF"/>
<path fill-rule="evenodd" clip-rule="evenodd" d="M19.0421 20.0161C21.4221 17.9662 22.9312 14.9159 22.9312 11.5098C22.9312 8.10362 21.4221 5.05335 19.0421 3.00342C16.6622 5.05335 15.1531 8.10362 15.1531 11.5098C15.1531 14.9159 16.6622 17.9662 19.0421 20.0161Z" fill="#6C6BBD"/>
</svg>
