<svg width="39" height="23" viewBox="0 0 39 23" fill="none" xmlns="http://www.w3.org/2000/svg">
<path fill-rule="evenodd" clip-rule="evenodd" d="M26.8046 22.7166C33.0578 22.7166 38.1271 17.7171 38.1271 11.55C38.1271 5.38279 33.0578 0.383301 26.8046 0.383301C24.002 0.383301 21.4373 1.38746 19.4602 3.05086C17.483 1.38746 14.9183 0.383307 12.1158 0.383307C5.86251 0.383307 0.793213 5.38279 0.793213 11.55C0.793213 17.7172 5.86251 22.7166 12.1158 22.7166C14.9183 22.7166 17.483 21.7125 19.4602 20.0491C21.4373 21.7125 24.002 22.7166 26.8046 22.7166Z" fill="#ED0006"/>
<path fill-rule="evenodd" clip-rule="evenodd" d="M19.4602 20.0491C21.8947 18.0009 23.4384 14.9532 23.4384 11.55C23.4384 8.14671 21.8947 5.09904 19.4602 3.05086C21.4374 1.38746 24.0021 0.383301 26.8046 0.383301C33.0579 0.383301 38.1272 5.38279 38.1272 11.55C38.1272 17.7171 33.0579 22.7166 26.8046 22.7166C24.0021 22.7166 21.4374 21.7125 19.4602 20.0491Z" fill="#F9A000"/>
<path fill-rule="evenodd" clip-rule="evenodd" d="M19.4603 20.0489C21.8948 18.0007 23.4385 14.9531 23.4385 11.5498C23.4385 8.14661 21.8948 5.09895 19.4603 3.05078C17.0259 5.09895 15.4822 8.14661 15.4822 11.5498C15.4822 14.9531 17.0259 18.0007 19.4603 20.0489Z" fill="#FF5E00"/>
</svg>
