<svg width="100" height="100" viewBox="0 0 100 100" fill="none" xmlns="http://www.w3.org/2000/svg">
<g filter="url(#filter0_i_161_7880)">
<path d="M100 50C100 77.6142 77.6142 100 50 100C22.3858 100 0 77.6142 0 50C0 22.3858 22.3858 0 50 0C77.6142 0 100 22.3858 100 50ZM9.10981 50C9.10981 72.583 27.417 90.8902 50 90.8902C72.583 90.8902 90.8902 72.583 90.8902 50C90.8902 27.417 72.583 9.10981 50 9.10981C27.417 9.10981 9.10981 27.417 9.10981 50Z" fill="#05AA4B"/>
</g>
<path d="M69.9244 32.4447L42.4089 59.9601L30.0923 47.6434C28.4997 46.0508 25.9195 46.0508 24.3273 47.6434C22.7347 49.236 22.7347 51.8162 24.3273 53.4084L39.526 68.6072C40.319 69.4002 41.3671 69.8033 42.4085 69.8033C43.4499 69.8033 44.4913 69.4068 45.2909 68.6072L75.6884 38.2097C77.281 36.6171 77.281 34.0369 75.6884 32.4447C74.0962 30.8521 71.5161 30.8521 69.9234 32.4447H69.9244Z" fill="#05AA4B"/>
<defs>
<filter id="filter0_i_161_7880" x="0" y="0" width="100" height="103.668" filterUnits="userSpaceOnUse" color-interpolation-filters="sRGB">
<feFlood flood-opacity="0" result="BackgroundImageFix"/>
<feBlend mode="normal" in="SourceGraphic" in2="BackgroundImageFix" result="shape"/>
<feColorMatrix in="SourceAlpha" type="matrix" values="0 0 0 0 0 0 0 0 0 0 0 0 0 0 0 0 0 0 127 0" result="hardAlpha"/>
<feOffset dy="3.66825"/>
<feGaussianBlur stdDeviation="3.05687"/>
<feComposite in2="hardAlpha" operator="arithmetic" k2="-1" k3="1"/>
<feColorMatrix type="matrix" values="0 0 0 0 0 0 0 0 0 0 0 0 0 0 0 0 0 0 0.15 0"/>
<feBlend mode="normal" in2="shape" result="effect1_innerShadow_161_7880"/>
</filter>
</defs>
</svg>
