<svg width="40" height="14" viewBox="0 0 40 14" fill="none" xmlns="http://www.w3.org/2000/svg">
<path fill-rule="evenodd" clip-rule="evenodd" d="M9.95104 13.4304H6.51163L3.93248 3.32062C3.81007 2.85557 3.55014 2.44444 3.1678 2.25067C2.21361 1.76372 1.16217 1.37618 0.0151367 1.18072V0.791493H5.55577C6.32045 0.791493 6.89397 1.37618 6.98956 2.05522L8.32776 9.34774L11.7655 0.791493H15.1093L9.95104 13.4304ZM17.0211 13.4304H13.7728L16.4475 0.791493H19.6958L17.0211 13.4304ZM23.8982 4.29286C23.9938 3.61213 24.5673 3.2229 25.2364 3.2229C26.2879 3.12517 27.4332 3.32063 28.3891 3.8059L28.9626 1.08468C28.0067 0.695456 26.9553 0.5 26.0011 0.5C22.8484 0.5 20.5544 2.25068 20.5544 4.6804C20.5544 6.5288 22.1793 7.49934 23.3264 8.08403C24.5673 8.66702 25.0452 9.05625 24.9497 9.63925C24.9497 10.5137 23.9938 10.903 23.0396 10.903C21.8926 10.903 20.7456 10.6115 19.6958 10.1245L19.1223 12.8474C20.2693 13.3327 21.5102 13.5281 22.6573 13.5281C26.1923 13.6242 28.3891 11.8752 28.3891 9.25002C28.3891 5.94412 23.8982 5.75035 23.8982 4.29286ZM39.7571 13.4304L37.1779 0.791493H34.4076C33.8341 0.791493 33.2606 1.18072 33.0694 1.76372L28.2935 13.4304H31.6373L32.3047 11.5837H36.4132L36.7956 13.4304H39.7571ZM34.8856 4.19513L35.8397 8.95853H33.165L34.8856 4.19513Z" fill="#172B85"/>
</svg>
