<svg width="20" height="21" viewBox="0 0 20 21" fill="none" xmlns="http://www.w3.org/2000/svg">
<path d="M11.1885 10.5101L15.5994 6.09924C15.679 6.02237 15.7424 5.93042 15.7861 5.82875C15.8298 5.72708 15.8528 5.61773 15.8537 5.50708C15.8547 5.39643 15.8336 5.2867 15.7917 5.18428C15.7498 5.08187 15.6879 4.98883 15.6097 4.91058C15.5315 4.83234 15.4384 4.77046 15.336 4.72856C15.2336 4.68666 15.1238 4.66557 15.0132 4.66654C14.9025 4.6675 14.7932 4.69049 14.6915 4.73416C14.5899 4.77783 14.4979 4.84132 14.421 4.92091L10.0102 9.33174L5.59937 4.92091C5.4422 4.76911 5.2317 4.68512 5.0132 4.68702C4.7947 4.68891 4.58569 4.77656 4.43118 4.93106C4.27668 5.08557 4.18904 5.29458 4.18714 5.51308C4.18524 5.73157 4.26923 5.94208 4.42103 6.09924L8.83187 10.5101L4.42103 14.9209C4.34144 14.9978 4.27796 15.0897 4.23428 15.1914C4.19061 15.2931 4.16762 15.4024 4.16666 15.5131C4.1657 15.6237 4.18678 15.7335 4.22868 15.8359C4.27058 15.9383 4.33246 16.0313 4.4107 16.1096C4.48895 16.1878 4.58199 16.2497 4.6844 16.2916C4.78682 16.3335 4.89655 16.3546 5.0072 16.3536C5.11785 16.3527 5.2272 16.3297 5.32887 16.286C5.43054 16.2423 5.52249 16.1788 5.59937 16.0992L10.0102 11.6884L14.421 16.0992C14.5782 16.251 14.7887 16.335 15.0072 16.3331C15.2257 16.3312 15.4347 16.2436 15.5892 16.0891C15.7437 15.9346 15.8314 15.7256 15.8333 15.5071C15.8352 15.2886 15.7512 15.0781 15.5994 14.9209L11.1885 10.5101Z" fill="#9CA3AF"/>
</svg>
