<svg width="84" height="84" viewBox="0 0 84 84" fill="none" xmlns="http://www.w3.org/2000/svg">
<circle cx="42" cy="42" r="42" fill="#FFEEB4" fill-opacity="0.5"/>
<g clip-path="url(#clip0_8486_10136)">
<path d="M42.0002 25.333C51.2052 25.333 58.6668 32.7947 58.6668 41.9997C58.6668 43.2113 58.5385 44.3913 58.2918 45.5297L55.3218 42.558C55.4441 39.6326 54.6001 36.7483 52.9199 34.3503C51.2398 31.9523 48.8171 30.1741 46.0258 29.29C43.2344 28.406 40.2297 28.4654 37.4755 29.459C34.7213 30.4526 32.3707 32.3252 30.7866 34.7876C29.2025 37.2501 28.4731 40.1655 28.7108 43.0838C28.9486 46.0021 30.1403 48.761 32.1021 50.9346C34.0639 53.1082 36.6866 54.5756 39.5653 55.1103C42.444 55.645 45.4187 55.2172 48.0302 53.893C48.6663 54.9012 49.5613 55.7203 50.6218 56.2647C48.0222 57.8398 45.0398 58.6706 42.0002 58.6663C32.7952 58.6663 25.3335 51.2047 25.3335 41.9997C25.3335 32.7947 32.7952 25.333 42.0002 25.333ZM53.6668 45.6197L56.0235 47.9763C56.4823 48.4349 56.7972 49.0174 56.9298 49.6524C57.0624 50.2874 57.0069 50.9473 56.77 51.5511C56.5331 52.155 56.1252 52.6766 55.5962 53.0521C55.0672 53.4275 54.4402 53.6404 53.7919 53.6648C53.1437 53.6891 52.5025 53.5238 51.9469 53.1891C51.3912 52.8543 50.9453 52.3648 50.6638 51.7804C50.3823 51.196 50.2774 50.5421 50.362 49.899C50.4467 49.2558 50.7171 48.6514 51.1402 48.1597L51.3102 47.9763L53.6668 45.6197ZM42.0002 46.9997C44.4435 46.9997 46.6418 48.0513 48.1668 49.728L46.5918 51.1613C45.2752 50.6363 43.6968 50.333 42.0002 50.333C40.3035 50.333 38.7252 50.638 37.4085 51.1597L35.8335 49.7263C36.6139 48.8663 37.5658 48.1793 38.6279 47.7096C39.6901 47.24 40.8388 46.9981 42.0002 46.9997ZM36.1668 38.6663C36.8299 38.6663 37.4658 38.9297 37.9346 39.3986C38.4034 39.8674 38.6668 40.5033 38.6668 41.1663C38.6668 41.8294 38.4034 42.4653 37.9346 42.9341C37.4658 43.403 36.8299 43.6663 36.1668 43.6663C35.5038 43.6663 34.8679 43.403 34.3991 42.9341C33.9302 42.4653 33.6668 41.8294 33.6668 41.1663C33.6668 40.5033 33.9302 39.8674 34.3991 39.3986C34.8679 38.9297 35.5038 38.6663 36.1668 38.6663ZM47.8335 38.6663C48.4965 38.6663 49.1324 38.9297 49.6013 39.3986C50.0701 39.8674 50.3335 40.5033 50.3335 41.1663C50.3335 41.8294 50.0701 42.4653 49.6013 42.9341C49.1324 43.403 48.4965 43.6663 47.8335 43.6663C47.1705 43.6663 46.5346 43.403 46.0657 42.9341C45.5969 42.4653 45.3335 41.8294 45.3335 41.1663C45.3335 40.5033 45.5969 39.8674 46.0657 39.3986C46.5346 38.9297 47.1705 38.6663 47.8335 38.6663V38.6663Z" fill="#FFAA29"/>
</g>
<defs>
<clipPath id="clip0_8486_10136">
<rect width="40" height="40" fill="white" transform="translate(22 22)"/>
</clipPath>
</defs>
</svg>
