<svg width="84" height="84" viewBox="0 0 84 84" fill="none" xmlns="http://www.w3.org/2000/svg">
<circle cx="42" cy="42" r="42" fill="#FF4B4B" fill-opacity="0.16"/>
<path d="M42 26.5C50.4165 26.5 57.2644 33.2069 57.4938 41.566L57.5 42V43.55C57.5 46.9181 55.1394 49.75 52.075 49.75C50.2569 49.75 48.6867 48.7533 47.7102 47.239C46.4981 48.5601 44.8655 49.4201 43.0905 49.6725C41.3154 49.9249 39.5078 49.554 37.9755 48.6231C36.4433 47.6922 35.2812 46.2588 34.6872 44.5672C34.0932 42.8755 34.1041 41.0303 34.7181 39.3458C35.332 37.6613 36.511 36.2418 38.0542 35.329C39.5974 34.4163 41.4093 34.0669 43.1812 34.3403C44.9531 34.6136 46.5755 35.4929 47.7718 36.8282C48.9682 38.1636 49.6645 39.8724 49.7423 41.6636L49.75 42V43.55C49.75 45.317 50.8598 46.65 52.075 46.65C53.2298 46.65 54.2884 45.4487 54.3923 43.8119L54.4 43.55V42C54.3991 39.321 53.5306 36.7144 51.9245 34.5703C50.3184 32.4262 48.0611 30.8598 45.4905 30.1057C42.9199 29.3516 40.1742 29.4503 37.6643 30.387C35.1544 31.3237 33.0154 33.0481 31.5674 35.302C30.1194 37.5559 29.4403 40.2181 29.6317 42.8902C29.8231 45.5623 30.8747 48.1006 32.6291 50.1251C34.3836 52.1496 36.7465 53.5515 39.3643 54.121C41.982 54.6904 44.7137 54.3968 47.1507 53.284C47.3362 53.1963 47.5373 53.1463 47.7424 53.1369C47.9474 53.1276 48.1523 53.1591 48.345 53.2295C48.5378 53.2999 48.7147 53.408 48.8654 53.5473C49.0161 53.6867 49.1376 53.8546 49.2229 54.0413C49.3082 54.2279 49.3555 54.4297 49.3622 54.6349C49.3689 54.84 49.3348 55.0444 49.2618 55.2363C49.1889 55.4281 49.0785 55.6035 48.9372 55.7524C48.7959 55.9013 48.6265 56.0206 48.4387 56.1035C46.4179 57.0266 44.2217 57.5029 42 57.5C33.4394 57.5 26.5 50.5606 26.5 42C26.5 33.4394 33.4394 26.5 42 26.5ZM42 37.35C40.7667 37.35 39.584 37.8399 38.712 38.712C37.8399 39.584 37.35 40.7667 37.35 42C37.35 43.2333 37.8399 44.416 38.712 45.288C39.584 46.1601 40.7667 46.65 42 46.65C43.2333 46.65 44.416 46.1601 45.288 45.288C46.1601 44.416 46.65 43.2333 46.65 42C46.65 40.7667 46.1601 39.584 45.288 38.712C44.416 37.8399 43.2333 37.35 42 37.35Z" fill="#F40000"/>
</svg>
