<svg width="13" height="16" viewBox="0 0 13 16" fill="none" xmlns="http://www.w3.org/2000/svg">
<path d="M6.51963 0C3.84181 0 1.67114 2.17067 1.67114 4.84848V9.69697H3.61054V4.84848C3.61054 3.24218 4.91284 1.93939 6.51963 1.93939C8.12641 1.93939 9.42872 3.24218 9.42872 4.84848V9.69697H11.3681V4.84848C11.3681 2.17067 9.19744 0 6.51963 0Z" fill="#F0F0F0"/>
<path d="M12.8229 14.0606C12.8229 15.1316 11.9545 15.9999 10.8835 15.9999H2.15619C1.08516 15.9999 0.216797 15.1316 0.216797 14.0606V8.24237C0.216797 7.17134 1.08516 6.30298 2.15619 6.30298H10.8835C11.9545 6.30298 12.8229 7.17134 12.8229 8.24237V14.0606Z" fill="white"/>
</svg>
