<svg width="84" height="84" viewBox="0 0 84 84" fill="none" xmlns="http://www.w3.org/2000/svg">
<circle cx="42" cy="42" r="42" fill="#FF4B4B" fill-opacity="0.16"/>
<g clip-path="url(#clip0_2717_6550)">
<path d="M39.0335 41.7279L51.4611 29.3003L53.7 31.5391L51.4611 33.7795L55.3783 37.6967L53.1395 39.9371L49.2207 36.0184L46.9819 38.2572L50.3401 41.6155L48.1013 43.8559L44.743 40.496L41.2724 43.9667C42.3498 45.6039 42.7818 47.5824 42.4851 49.5196C42.1883 51.4569 41.1838 53.2153 39.6657 54.4549C38.1477 55.6945 36.2239 56.3272 34.2664 56.2306C32.3089 56.1341 30.4568 55.3152 29.068 53.9322C27.6763 52.5457 26.8498 50.6913 26.7492 48.7294C26.6485 46.7675 27.2809 44.8383 28.5234 43.3166C29.7659 41.795 31.5298 40.7897 33.4722 40.496C35.4146 40.2024 37.3968 40.6415 39.0335 41.7279ZM38.025 51.6918C38.4862 51.2555 38.8553 50.7312 39.1105 50.1498C39.3656 49.5684 39.5016 48.9418 39.5104 48.307C39.5193 47.6721 39.4007 47.042 39.1619 46.4537C38.923 45.8655 38.5686 45.3311 38.1197 44.8822C37.6707 44.4332 37.1363 44.0789 36.5481 43.84C35.9598 43.6011 35.3297 43.4826 34.6948 43.4914C34.06 43.5002 33.4334 43.6362 32.852 43.8914C32.2706 44.1465 31.7463 44.5156 31.31 44.9769C30.4448 45.8727 29.966 47.0726 29.9768 48.318C29.9877 49.5635 30.4872 50.7548 31.3679 51.6355C32.2486 52.5162 33.44 53.0158 34.6854 53.0266C35.9308 53.0374 37.1307 52.5586 38.0265 51.6934L38.025 51.6918Z" fill="#F40000"/>
</g>
<defs>
<clipPath id="clip0_2717_6550">
<rect width="36" height="36" fill="white" transform="translate(23 24)"/>
</clipPath>
</defs>
</svg>
