<svg width="100" height="100" viewBox="0 0 100 100" fill="none" xmlns="http://www.w3.org/2000/svg">
<path d="M31.1666 76.4582L44.0833 86.4582C45.75 88.1248 49.5 88.9582 52 88.9582H67.8333C72.8333 88.9582 78.25 85.2082 79.5 80.2082L89.5 49.7915C91.5833 43.9582 87.8333 38.9582 81.5833 38.9582H64.9166C62.4166 38.9582 60.3333 36.8748 60.75 33.9582L62.8333 20.6248C63.6666 16.8748 61.1666 12.7082 57.4166 11.4582C54.0833 10.2082 49.9166 11.8748 48.25 14.3748L31.1666 39.7915" stroke="#008935" stroke-width="4.5" stroke-miterlimit="10"/>
<path d="M9.91669 76.4579V35.6246C9.91669 29.7912 12.4167 27.7079 18.25 27.7079H22.4167C28.25 27.7079 30.75 29.7912 30.75 35.6246V76.4579C30.75 82.2912 28.25 84.3746 22.4167 84.3746H18.25C12.4167 84.3746 9.91669 82.2912 9.91669 76.4579Z" stroke="#008935" stroke-width="4.5" stroke-linecap="round" stroke-linejoin="round"/>
</svg>
