<svg width="84" height="84" viewBox="0 0 84 84" fill="none" xmlns="http://www.w3.org/2000/svg">
<circle cx="42" cy="42" r="42" fill="#2ED573" fill-opacity="0.16"/>
<path fill-rule="evenodd" clip-rule="evenodd" d="M38.865 50.244L29.5605 40.9395C29.4221 40.7962 29.2566 40.6819 29.0736 40.6033C28.8906 40.5247 28.6938 40.4833 28.4946 40.4816C28.2954 40.4799 28.0979 40.5178 27.9136 40.5932C27.7292 40.6686 27.5617 40.78 27.4209 40.9209C27.2801 41.0617 27.1687 41.2292 27.0933 41.4135C27.0178 41.5979 26.9799 41.7954 26.9816 41.9946C26.9834 42.1937 27.0247 42.3906 27.1033 42.5736C27.182 42.7566 27.2962 42.9221 27.4395 43.0605L37.9395 53.5605C38.0895 53.7102 38.2696 53.8265 38.4678 53.9016C38.6661 53.9768 38.878 54.009 39.0896 53.9963C39.3012 53.9835 39.5077 53.926 39.6955 53.8276C39.8833 53.7293 40.0481 53.5922 40.179 53.4255L56.679 32.4255C56.8077 32.2714 56.9042 32.093 56.9627 31.901C57.0212 31.7089 57.0405 31.5071 57.0196 31.3074C56.9986 31.1077 56.9378 30.9143 56.8408 30.7386C56.7437 30.5628 56.6123 30.4084 56.4544 30.2843C56.2966 30.1603 56.1154 30.0692 55.9217 30.0165C55.728 29.9638 55.5256 29.9505 55.3267 29.9774C55.1277 30.0043 54.9362 30.0709 54.7634 30.1732C54.5907 30.2755 54.4402 30.4114 54.321 30.573L38.865 50.244Z" fill="#2ED573"/>
</svg>
