<svg width="84" height="84" viewBox="0 0 84 84" fill="none" xmlns="http://www.w3.org/2000/svg">
<path d="M51.9999 35.25H49.5V32.75C49.5 28.6137 46.1362 25.25 42 25.25C37.8637 25.25 34.5 28.6137 34.5 32.75V35.25H32C31.31 35.25 30.75 35.81 30.75 36.5V53.9999C30.75 54.6899 31.31 55.2499 32 55.2499H51.9999C52.6899 55.2499 53.2499 54.6899 53.2499 53.9999V36.5C53.2499 35.81 52.6899 35.25 51.9999 35.25ZM43.25 47.5199V50.2499H40.75V47.5199C39.2987 47.0024 38.25 45.6275 38.25 44C38.25 41.9325 39.9325 40.25 42 40.25C44.0675 40.25 45.75 41.9325 45.75 44C45.75 45.6275 44.7025 47.0024 43.25 47.5199ZM47 35.25H37V32.75C37 29.9925 39.2425 27.75 42 27.75C44.7575 27.75 47 29.9925 47 32.75V35.25Z" fill="#F40000"/>
<circle cx="42" cy="42" r="42" fill="#FF4B4B" fill-opacity="0.16"/>
</svg>
